<mxfile host="app.diagrams.net" modified="2024-04-16T00:42:34.548Z" agent="Mozilla/5.0 (Macintosh; Intel Mac OS X 10_15_7) AppleWebKit/537.36 (KHTML, like Gecko) Chrome/123.0.0.0 Safari/537.36" etag="apWqSuD_55cMtVobMPmO" version="24.2.1" type="github">
  <diagram id="3228e29e-7158-1315-38df-8450db1d8a1d" name="Page-1">
    <mxGraphModel dx="796" dy="762" grid="0" gridSize="10" guides="1" tooltips="1" connect="1" arrows="1" fold="1" page="1" pageScale="1" pageWidth="600" pageHeight="250" background="#EFF1F3" math="0" shadow="0">
      <root>
        <mxCell id="0" />
        <mxCell id="1" parent="0" />
        <mxCell id="oIuyQTHjkRSl1DWb6maO-6" value="" style="shape=flexArrow;endArrow=classic;html=1;rounded=0;strokeColor=none;fillColor=#4A909B;" parent="1" edge="1">
          <mxGeometry width="50" height="50" relative="1" as="geometry">
            <mxPoint x="243.5" y="131" as="sourcePoint" />
            <mxPoint x="342.5" y="131" as="targetPoint" />
          </mxGeometry>
        </mxCell>
        <mxCell id="w3XPrhG8B_gGQLfjwU7v-1" value="" style="shape=image;verticalLabelPosition=bottom;labelBackgroundColor=default;verticalAlign=top;aspect=fixed;imageAspect=0;image=data:image/png,iVBORw0KGgoAAAANSUhEUgAAAf4AAAIRCAYAAACrld/vAAAACXBIWXMAAC4jAAAuIwF4pT92AAAgAElEQVR4nO3dUYyU1533+RMvswPZsNBYbm3hDDDtxpFMBERYIhe2aC6I1khjM2O99g0jOtLG8lVMrnbeK+PVSjP73hjnKhNfBBRubMkZcFZYChe0ZVYKktHQKCDFtHsME1O7bZl2L9nAO69nvPoXp3A9z/k/1U9VnXOe5zz1/UgocXV1d51+nqrfc/7nPOd846uvvjLAaqZbk9uMMfJvZpWnAqiPOWPMJwvtpU84Jugi+FHIhv2s/be16HkAau+GMeaE/OMiAAQ/HNOtyY3GmKP23wbnCQBS9pox5vhCe+kLjuJ4IvjxAIEPjI0VY8yxhfbScQ75+CH4MVDgr900YdZtmnAeB1Avd28vm3u3l1d7TTIEcHShvXTa+Qoai+Afc9OtSRm/P9ZvDH9iesq0vv+kmdy5w6xZt875OoB6+vLuXbN05app//ZDs7yw2O81vm8vAC47X0HjEPxjqkzgS+9+x+EXzMT2x5yvAUjLZ1eumt+/8+5qVYCTdgiACYANRvCPmenW5CGZ2LNa4E8dPGA2733S+RqAtN08/4FZfO+c+fLuvaJ2rNjPCCYANhTBPyamW5Mztoe/r6jFBD4wHmQI4Ob5C50LgD5WbPn/RPFTkCKCv+HKBP6adWvNlpmnO6EPYHzIBMDFs78x7YuX+rVZJgDOLrSX5pyvIEkEf0PZxXdOlAn8LfufYtIeMMaWr39sFs+eYwLgmCD4G8YGvvTwjxS1jMAHoGEC4Hgg+BuiTOCL1t49ZurgD7gXH0Ah6f3fnPuACYANRfAnrmfxnVf7tYTABzAImQB4/wLgQr/vYgJgggj+RJVdbY/ABzAKmQD40TvvdoYB+mACYEII/sSUDXxZbU9m6bP4DgAfBpgAOMv4f70R/Akpu7wugQ8glFsXP+xcAJSYAHiU8f96IvgTUCbw1z/aMo8//yyBDyAKJgCmi+CvMZbXBVBnJScA3rC3/zEBsCYI/hpieV0AKSk5AXDelv+ZAFgxgr9Gyi6vO/XMAbNl/9PO1wCgSjIBUC4A7nza7vcqmABYMYK/BlheF0CTMAGw3gj+CrG8LoCm6u4AyATA+iH4KzDI8rrfef5ZAh9AsuQCQNb/L7EDIBMAIyH4I2J5XQDjSiYAXvvlW2UWADrGBMCwCP4IWF4XAO4rOQHwjB3/ZwJgAAR/QCyvCwC6khMA37AVAMb/PSL4A7Gr7R0n8AFAN8gEwIX20jHnKxgKwe8Zy+sCwGCYABgXwe9JmcBntT0AKMYEwDgI/hGxvC4A+CUTAK+eenu18X8mAA6J4B8Sy+sCQFgyAVDuAOgz/m+YADg4gn9A063J3XbSXt/AZ7U9ABjdABMAJfyPO1+Bg+AvieV1AaA6Mv6/ePY3ZSYASvn/tPMVPEDwr4LldQGgPu784Van/M8EwOER/AXs4jsS+K/oz7iP1fYAIL6SEwBP2gsAJgD2IPhzWF4XANJRcgLga+wA+DWC3xpkeV1ZfGf9tzc7XwMAxMcEwMEQ/CyvCwCNwATAcsY6+MustkfgA0BaZPxfNgBiAqBuLIOf5XUBoPk+u3K1swcAEwCzxir4WV4XAMbPzfMfmMX3zvUb/zfjNAFwLIK/7PK6MmmPwAeA5ulOAJQLgD5W7Ph/o3cAbHTws7wuAKDXABMAZ5s6/t/I4Gd5XQBAPwNMAJQKwGXnKwlrVPCXXV53y8xTnXF8Ah8Axts4TgBsRPCzvC4AYBQlJgCu2KHj5CcAJh38LK8LAPBlXCYAJhn8LK8LAAhFJgDK+v8yDNBHshMAkwv+6dbkUVvW7xv4rLYHABhFUycAJhP8LK8LAKiC7AAoFwAlJgAeTWH8v/bBP92aPGQnVBQGPqvtAQBCk/AvsQNg7ScA1jb47Ti+TJ54zvmiReADAGKSCYD3LwAu9PutMv5/qK7l/1oGvw19mTCxy/kiy+sCACpWYgLgip38V7vtf2sX/P1Cn9X2AAB1UmIC4Pfq1vOvY/Cf1sr7rLYHAKgrmQAoFQBl/F96/tvqNOZfq+C3E/n+qfcx6eXv+tERZuoDAGpNxv8vvfEzc+fTdv5lnlxoL83W5bU/5DxSreP5307oAwBSIBXpPa+83Jl4nnPE7iVTC7UJfrtnfuaWvalnuCcfAJAOCf8dh1/QXu9R55GK1KnHf6j3PzoT+fY/5TwJAIA6kw7rIzt39M24KtUp+Gd6/0P+aEzkAwCkSLndfGtdyv11Cv7M7XuU+AEAqZrYPqW9coK/H7bQBQCkqs4V69oGPwAA8K+2wa8sggAAAEZUp+C/0fsfd/5wy3kCAAApKMiwWqzeV6fgz6xl/NmV3zlPAAAgBe2LHzqvsi5r9tcp+DM7GMmSh7L5AQAAKZGle2+5wX+mLk2oW/Cv9D4gGx4AAJCSm+cvaPPUarM9b22C3+5cdKL3Men1Xz31lvNcAADqSHr6i++dy7+yGwvtpRN1ebl1m9V/LN/rb1+8RPgDAGpPQv/aqbe1l1mbdfpNTffjd7bmFbLbkezHryyDCABAZWQGv/TyP7tyVXsJtdqS11QR/HYXPrHbGLPRecJ9/7MxZq/zqJQo1qwxax+eMH++fr3zNQAAYvlvd++af/t/75h/u/PHot/4/9ghbGfA35qz/3vZDndHETT47YYEh+wGPLvz2+4CAICOFXtbu1wMnA5565/34O8J+9n8xjsAAKCUFXsnwHHfFwHegn+6NbnbTmA44nwRAAAMa95eAHi5M2Dk4Lc9/OPGmOecL/axZt1as/7RzcVPAACgoe7eXjb3bi8P2jhZ2v7oQntppDUBRgr+6dak3H73qvOFnPWPtswjO79r1n97s/nWtzez5S4AAHaVP7krYPn6ornz6a3OirXK4j9578tw+kJ76RPnKyUMFfy2rH+i3xi+hP1f7H/aTO7cUet9iQEAqBO5LXDpyu8669j0sWJ7/wOX/wcO/unWpEza+4XzBau1d4/ZMvN0p3cPAACGI9UAWf735twH/aoAJ+0FQOnbAQcK/unW5ImiyXsT01Pm8eefJfABAPBILgAWz54zN+cuFP1Qmfw3Uzb8Swd/UejLJD0JfFbUAwAgHJkLcO3UW519bBSlw79U8BeFvozj73xplsl6AABEIjvXFvT+S4X/qsFfFPoylr/j8IvO8wEAQFh9NgRaNfz77s5nJ/IR+gAA1IgMr+/9X492httzdq22939h8Ntb9pzZ+4Q+AADVk8n0e378shb+++w6Oyo1+Kdbkxu1KwZCHwCA+pDwL8jlV3t2w81Qg98Ycyy/k57crlfwwwEAQEUe2bnDPP43f6X98hO2I98/+O0Vwiu9j0kZYddLzlA/AACogS37n+5cAORstZvn9Q9+29vPkJ4+y+4CAFBfOw6/oI33v2o303sgE/y2t7+v9zG5glCuIgAAQI1IB10W1FNkOvT5Hr/T2y/4IQAAoGbkNj+Zk5dzpLfX/yD47e17md6+zOJnVT4AANIxdfCA9lpnu/+nt8fvTACYOvgD5zsBAEB9TWx/TOv1q8F/qPcZ9PYBAEhT6/vOxnlbp1uTnZzvBL/9jw29z5jc+V0ONwAACZKxfmWG/9fBLwv6935FnsxMfgAA0qXkeCfr1eBXngwAABKiVO6l3L+tG/y7er8iEwMAAEC6JrY7E/zE7oe0RfzXP7rZeSYAAEiHLOiz/tGWG/zGmG35R2W3HwAAkLa1D29aPfiVqwMAAJAgpYK/0dmkh814AABoBuWWvm1Ojx8AADSDMnS/1Ql+ZvQDANBcTqkfAAAQ/AAAoAEIfgAAxgjBDwDAGCH4AQAYIwQ/AABjhOAHAGCMrBnng33r4ofm3ufLzuMhyW5JvtdKWDx7znkstNb3nzTrNk14+y3L1z82y9cXncdDWvvwhNm890mvv6EJ59SXd++am+cvOI+HtmX/U6wcCkQw1sH/0Tvvmi/v3nMeD2nXt494/emfXblqFt+LG/yyBOTUwQPO46O4OXeh05aYWnv3eA1+Ccxrp952Hg9t786jXn/DUgXn1NpNE97PKQC6sS31S8jEDn0JzEd27nAeH4X0MGPz3QYJzNihL3z39pcqaIMEprIk50jav41/Tk16PqcAFBvb4F+68jvnsdAITF1Vgel7yKWKY+E7MO/eXjbLC3GHXEyn+uL3nAJQbCxL/RKY7YuX8g/fMMZ84jx5eLIHwtbe757c+V2v7SgIzPedR0az2xizofsTIgXmijHmsvPE4W2UUZbe7w4RmEo75o0xXzhPHp5zTvkOzM/m1Qvi4OeU76oFgGJjGfwFgXloob3kLWymW5MnjDEPBvTlw813j18JmhsL7aUZ54lDmm5NSmBmZqpFCsxjC+2l486Th2/HrDHmF72PRQpMOae8XUxOtyZP9wZ/kDK/O3Q07/mckouXf+l9bMvMU87zAIQzlqV+JWhueA79jb2hbwIEZkGZ/4TzxNEcyn93pMA87TzisR0RA9Nn6EtgPtf7mO/AlIuwO5+28w8HP6ce2eW3Egagv7EL/oLADBo0JkBg3tInYAX9kE40MDfmA9P3HIWmBGbBpD7f7Zjt/Y/1j7a83hYKYHVjF/wFZX5vZWWLwCwhUmDO5h+QNQh8ilS1CB6Yyh0iZxbaS97mKNiqRWauBZP6gPjGLvj/9fwH+YeCB2aIcXECs7TggSlrEOScCVDmDxqYd/5wy9y77Sw8FLwSRpkfiG+sgr+qkuxf7H/aedIoCMxyCMzylAqSCdCOzEpDMtmVMj8Q31gFf6TAzHy4hQhM5UP6fQJTRWCWpAyB+S7z787fiuj7LhcA5YxV8Csf0iFmXgcPzEZMJHOPhQldtZiYniIwFbJPgnIRFnzoiNX6gGqMTfAXlPmDTuozBGahSIGZvQjzPEchUtUieGAqk/pWFtpLQasvcvHChjxANcYm+JVJfSbFcXECs7TggXlzzjmnJDCDVl9CBGbo21sp8wP1MjbBHyEwnTK/70l9BOZACMwSCjarCjpHQTar8n1rKIDyxmLJ3kiB6eyN6jswlTL/SugJcQSmrimBqWxWFaXM32QyrHjv89udFsr6HU0a0uhtm+89O6rW5LbljUXwK4FpUgxMZSz2dGoTySIFZqZqIYHp+yKsCYFZsIql18rLdGvyUO+GPCbAZlVVkk6F/A1lguSdT29p53ZHdxEvmS8j835SuI1R2rR8fXHVtsmQ5rekbdsf67zPUrjQKXvcpG1rH97Uee9J+5py++lYBL9S5j9JYKqaEpiZdiRatQgemEv6ORV0yEXOqdR7/HLBdPP8hc6FuFJJVMnz7tkNqT761a87FwAyd6ZuQx7S65Wlm2U4Tjk3VDJpWv7JjqfX7PtN2lW34zzMceu2rft+r+txG1Tjg18OmHKQkxsXJzDLiRGY8sGhfCgGvUMkRGAqx8LrZlVWY8r83eAYJBSLLC8sdv4tnj1nvvP8s5X/XaRt8lqURbUGJueV/JPe8uPPP1t52TzUcdtx+IVkhwQaH/xVlGRbe/cQmAoCcyBVlPl9n1Oz+XNqy4zfCa+xSEn46qm3tU7ESOTnzb95snN8JUiqKJPLeXD11Fvae3Mk0lO+9NN/rLRtIY9b1W0bReNn9UcKzEyZ33dgFpT5kyvJKseCwFTECExl+MukuLtjDNK7kw/5VcLjjDHmNWPMfvm30F76hlSG7X//tf3avPNdlpxTF179+87Yc0wfvfNu58JD+XzpWrFt+4lty/ds2/6yp21vrNa23/7D8ehtK3Hc8m1L5riNqtE9/oLADNrbDxGYyqQ+Ccw554mjaUJgOlUL/7PgnTaYJLdDdrfgnfd5ERZjs6oYpCcsY9cFbhhjjhVNsrWPdd+ncq4fs7f9zto7NjLnqnxWXfw/jpsnDr8QZQx5lba9L+d10W22dsXT7qqnnfexbdtR275M2+73kH9m9vz45SgXf6u0TYL8eJ+2DXzcpG07Dr+YzFBWo3v8Spn/RkNmXhOYuswcBQlM32NwyrHwWrWItbujjFPmBF/2ObUtePuEh/QUf7jQXtom4aGFfhEJzIX2klwsbLM9Zce1U29rF/te9WnbDdvznSkKxiK2bUdt207mn9YNyNC941XaJsdt95BtKzxu0japnMjQQgoaG/wSmMrBT3LmtYLAzIkVmEo7gi/77DswI21WlXSZX8rEyueHsaXhbaMuOCUXCzYkv2cDKUNK8KECsk8wSljvHrWaaNs2a8vlK71f64b/3eLy+0jk71bQtjO2bb6Om9M2IeGfQtm/scFfVUk2tXFxArO8pgSmsq5FiM2qMufUlpmnnOfVlfTaFt87p706uQ34kM9bge17eXd+HLnbg5QOjE9SSSgIxp9IWHtum1xAzGhtu/Jz3x/F9z8rC+5KeCPAcZuzvX+nbSGOm2+NDX4laEIE5pHex3wHZkGZP7mSLIFZTozALNisKrndHUOR95x8cCtO2l6sdzaQnICUcfHfv/Out18nx/4j/edJ+dv3hXiH/cydyVc15ByUqoovctykkqF4w/bQQ7St8Lj5bFsIjQz+gsAMvte778C85U7AMklOJAsfmE7VwvcchaYEpjKpz4QeOgqxWVUo8oGtTAg+Eyr0u3pCJFM+lt65r3HjxbO/0dp2MsA+GRm2bYfybZOqiq+Sv1wgFbQtSOh3FbVNKg91Hu9vZPAXlPmDlpYJTF2kwHQ+lH3vKBipahE8MJVJY8E3q0plUp+cq0qp+IZ2foXQEyIZPnqPEkJKiX8+9AVNl+35OyEsFyOj6qw26Lbthvb7ArXtE+0cqXOvv5HBr2zBGzwwQ4yLE5ilBQ9MJRDOBCjzBw3MSJtVOcGVSplf+dwQR31eGK3Gjh1nxho6q8WN2HtULvhMrGDsspWF93sfk8AetddfcPHgdb7CauzdYmd6nybHra4T/RoX/FWVZH1vwUtglkNglqdUkEzoHQVlsmsqZX4lHN8PcPtvGcdKvLbSCu5wOhlgLZCh2lZwwVVKwbDu+xW1zbmQUrYgr4XGBX+kwMwc4BCBqXxIv09gqgjMkpQhMN9l/uCbVYVSsNhXkAlvq7Hv80yvXwm30pTjbips21y+11/w+kop2GjKubiIwfdxC6lxwa98SIeYeR08MBsxkcw9FiZ01UJ2zyIwXVIqVi7Cgg8dpbJan7LYV4g9PQaROTYSbsOW+5Xw8bpK4xAybZPzctiSuPI3CbGq6SAy58woxy2kRgV/QZk/+P3iBKYuUmBmL8I8z1GIVLUIHphKqTj4ZlUhdncM5Y9u8FQZ+t2ecWamuOyNPwwleCptm/b7ZU/8YSh/E+dnx2TfU16OW0iNCv6CsaLkxsUJzNKCB6YyRrcS4Pan4IGp9Pp8r2KZbJnf2PvKc6rsNXZlXoMS4KuSzpBSCq+0bfazLFPuVy68SlE+Y+pw3DLVlGEvakJqVPBHCEynzO97Uh+BORACs4SC8eugcxRks6oYG834UFBmrrIU7u013Pv8tvNYHdtWcAz6KrgQqkPbMhcfX/6pfqv4NSb4IwWmM2vTd2AqZf6V0BPiCExdUwIz0vi1c06lQlteteIx8K7M3CRlY6WhxLzNrY8gr8HnfC5fQu1LMIrGBL8SmCbFwFTGYtUtP4fVoMDMVC0kMH1fhDUhMAtud/JaeYmxWdWYGjnElJ60syEQvMv0+JUOaeUaE/xKmf8kgalqSmBm2pFo1SLK7o7KORV0yEXOqZR6/GNm47j/AdCQ4JcPaOWqKrlxcQKznBiBKZUXJTCD3iESIjCVY+F1syor2TJ/zW0b9eUpy4hvcJ4E32Z6f97aGi5g1Yjgr6Ik29q7h8BUEJgDqaLM7/ucms2fU1tm/E54DU17H0+3JmecB+PLBL/ccuuDXXK8Vm3zxU7ArpU6rlzZmB5/TojAzJT5fQdmQZk/uZKsciwITEWMwFSGv0yKuzuGVvB66xAgu3v/Y8033QuU1ax9eJP2jN3OI/FlXkPBMehrYvtj2pfr0LZsj/9hgt+7gsAM2tsPEZjKpL4QK1A1ITCdqoX/WfBOG0yS2yG7W/B6XbEtxmZVsch6HDl16PFnXsP6Rwc/P6S3KZ9XOc4iZDHZ8yZzW/S3hjz3lTJ6HY7bvt7/GOa4hZZ88Ctl/hsNmXlNYOoycxTkjV9w5T805Vh4rVrE2t1Ruf0r+LLPqWzBm6ecQ07bYtLerxPbhyv1161t2u9XXmMpyt/E+dkx2ePmpW0hJR38BbtOJTnzWkFg5sQKTKUdwZd99h2YkTarSr7M36W8FzbY4ZiqOFVG5TWWonRUtlY8h8H5LBp2HFz5LN6qhW9Ezl1TdXxPJB38VZVklTfSSJSgITB1zhuawNQp61qE2Kwqc05tmXnKeV4q7t/d4pTEKwl++7c90vvYKJ85Be/1SnawsxccmVL4KJXHguPmLLQWg/aeqOvqlUkHvxI0IQIz8wYseBMNraDMn1xJlsAsR/tw8B2YBZtVJbe7Y2zK5Mp9FfX6nQtm5bWVJnctyF1IOfsq6vU7Fxyj7hOihOu+inr9znvM95LuviQb/AWBGXyvd9+BecudgGW0E2hETQhMp2qhvOFH0pTAVCb1mdBDRyE2q4pty/6ntN7j8Zi3v9nAypznchvfqO/XqYM/cB6TcyJy247me/tyQTLqeVMQrrGP22y+bVKNqOt7ItngLyjzO1fKIyIwS4gUmE7Py/eOgpGqFsEDU7lDJPhmValO6uslPWOlZ70h1lavdnVQ533z+PPPOs8dlJxjSq9/a4DPTJVt2+u9X5OLrIILkoFI25Sq2Vbtbxmwbc7f0cdxCyXZ4Fe24A0emCHGxQnM0oIH5s25C/mHzgQo8wcNzEibVTWuzN8lvX7lFjEpHQcNEft5c8Jd2+Epb52N7zz/rFbROBKhbbu17XLlIsvXe3jq4AHtuD0X6bidzh+3qWcO1LoClmTwV1WSLSgpDY3ALIfALE+pIJnQOwrWuaQ5KOn17/rREe27ggWkPb/n8ue4vFcl0HyRtu04/KL200K2rRv6mWAM07YXnMcjtS2zuJvvtoWQZPBHCszMh1uIwFQ+pN8nMFUEZknKEJjvMn/wzaqqJj3sJ4pD5LLPZWHtBLvL+fep9MyfOPyiupzwKORYKWXxbttO+xwXt+PeTuhL2/a88rLz/FHJ7Y6P/81faT9F2jbnuW2HtIu17nGruySDX/mQDjHzOnhgNmIimXssTOiqhUx2IjBdy9c/1i7Cgg8dpbpaXz8yD0YZEzf2c+Gynag2NPmMsT3R82ow/vjlYPd/y9hzQdtkaPOTUe9ksG2Tz4BfFLXN9wVN15b9Txe1bZ9tm4/jJm37p6K2pbCWRXLBX1DmdyZWjIjALClSYGYvwjzPUYhUtXA+TH0HpjKpL/hmVSF2d6wLKYsX9I7lA//16dZkJ0gG6UnK+WwD/1/ytwqbiOEhbSsISGnbL2zbZkdo23P5r9ekbT6OW2Vt82VNEq+yhzKpz6Q4Lk5glhY8MG/OOeeUBGbQ6kui2yE3vsyfJ71jWUf+2qm3na/Zv8XrNkzm7d9byvb59/Fu+28m//frJZPTZH5BrPCQgFy3aZNZfO+c8zX7On9hLwLet2Xtodsmn6E7X5qNNhdE2ial/xLHzUvbpLyf0qqVyQV/hMB0yvy+J/URmAMhMEuItFlVpkwqvZy6rkzmk7RRNlq5duotrdrYtSv/uTEIqSzIhLDY1RP5nbLe/dVTb2ufSV378veoD0LaVsWtbSWP28htq+K4jSqp4I8UmM4YkO/AVMr8K6EnxBGYuqYEprJZVZQy/7iQ3tzev/uJuXn+g04PWTlnhiLDb/fDt7qNXOR3f//vjpqb5y90LuZ9tk0Cv8qecPe4LZ49571tVR+3USQV/EpgmhQDUxmLPZ3aRLJIgelseOH7IqwJgVmwiqXXykuMzapSIJPHNn//yU7lUYYd+/Qk++rOrq9LcMhnnASZrGMgq4nKLbpKJ6sUGV+XC9s6hWK3baMetzq2bRhJBb9S5j9JYKqaEpiZdiRatYiyu6NyTgUdcpFzapx6/L3kHJQPf/nX2Zxq/nedLZDvfX67MFC6y+5KYEhpva6l4c7qhfuf7vyTCqvcKdKvbZ3d5x7dnEzbBjluKbVtUMkEv3xAK1egyY2LE5jlxAhMqbwogRn0DpEQgakcC6+bVVljW+bvp7NcrA3KppHAk39NbFuTj1sZydzOV0VJVso6BKaLwBxIFWV+3+fUrLuU7Hh+YAJNkEzwRwrMTJnfd2AWlPmTK8kqx4LAVMQITGX4y6S4uyOAeJII/oLADNrbDxGYyqQ+CUxn84oRNSEwnaqF/1nwThtMktshu1vwzvu8CIuxWRWAuJIIfqXMf6MhM68JTF1mjoIEpu9ZtMqx8Fq1iLW7o0xOygm+7HMTtuAFxlntg18Cs33xUv7hJGdeKwjMnFiBqbQj+LLPvgMz0mZVlPmBhql98FdVkk1tXJzALK8pgamsaxFis6rMOVWwdj2AhNQ++JWgCRGYmc0yfAdmQZk/uZIsgVlOjMAs2Kwqud0dAcRX6+AvCMzge737Dsxb7gQsk+REsvCB6VQtfM9RaEpgKpP6TOihoxCbVQGIr9bBX1DmD1paJjB1kQLTWUDJ946CkaoWwQNTuUMk+GZVTOoDmqHWwa9swRs8MEOMixOYpQUPTFmDPOdMgDJ/0MCMtFkVZX6goWob/FWVZH1vwUtglkNglqdUkEzoHQVlsitlfqAZartWf0Fgztpb73zZ3ftzQgRmwYf0ienWpPPgCKoIzN3TrUmfiw9tzD8QKTCP2hX2fMmcUyECUxkC62zr7PmcCrpZFYDq1Db4Cz6kdzmPeBQiMJWqhdjnPOJRpMDcmg8Hn2Q3swiBaUKfU74DU3ZLUy7CNoQ+p1itD2iOWpb6C8r8wUUKzKAiBmZQvucoFFQtgvMdmMqkvuBC7O4IoDq1DH5lUl9wIcr8BObwfAfmzbn451Sk7ZCDo8wPNEstS/3f+vZmM/XMAefxkCa2Twvb4uQAACAASURBVHn/6b5vqSsjxOJDsY/F2ocnvAemLF28btMm5/GQfJ9TUgmrYjvcKs5jAOHUMvib8kEzdTBuYIYggel7vf8qNOGckopUE84pANVKZj9+AAAwOoIfAIAxQvADADBGCH4AAMYIwQ8AwBgh+AEAGCMEPwAAY0SCP7PDmqwFDgAAmskJfgAA0AzL1xfz7bjhlPpliVYAANBIn0jwX+5tWRW74gEAAP/ufHor/zO/kOD/Iv+o7MgGAADSpuT55YcW2ktzTvC7VwgAACAhMnSvbKt+uTvGP9/7aBV7fgMAAH+W9Cx/EPyZXj+39AEAkDYly28stJc+6Qb/6d6vfHn3Hr1+AAASJWV+Jcc7Wd8JfjvOv9L71VsXP+R4AwCQICnzSyc+54TJLdl7ovfrcqVw150UAAAAau5fz3+Qf4FS5r+cD/7j+Wctnv0NxxYAgITI2L6yJs+Dzv2D4JcBf2PM+73Pal+8RK8fAICEfPTOu/kXu9Lbuc8v2Xss/+xrv3yL4w0AQAJunv9A6+2fXmgvPVisLxP8dpJfpte/vLCozQwEAAA1IhX6xffO5V+Q9PaP9j7gbNKTf4K4euotSv4AANSYVOiVmfzHe3v7Rgt+O+vvjd7H5Add+fkJdu4DAKCGFs+e61Toc+YX2kvOEL4T/Nax/DK+Mmbwe3fCAAAAqJCsu6OU+MWs80hR8NuywGx+UR+Z5S9lfwAAUD0J/Wun3tZex0+69+2XCn7zdcnfGe8n/AEAqF6f0D+50F5y1ubpKgx+cz/85Yb/1/KPS/jPv3mSMX8AACogt+0VhP681mnv9Y2vvvrKeTBvujUpFwBH8o+vf7Rlnjj8oln/7c3O9wAAAL+kwy3z7aQDrpDQn8nP4h8q+E2f8F+zbq2ZeuaA2bL/aed7AACAH7IU79VTb5t7+u31pULfDBL85n74S/ngdecLtvf/+PPPmontjzlfAwAAw+kszHP2N0W9fGMX3jtUJvTNoMFv7of/IbvY/wbni8aYiekpM3XwABcAAACMoETgizcW2kt9x/TzBg5+cz/8t9nw3+d80Vq7acJsmXnKPLLru2bdpgnn6wAAIEvG8GUv/fZvP9QW5Oklt9vPLrSXTjtfWcVQwd9lS//Hinr/XXIRMLF9qlMFkIsAmQy4Zt0653kAAIyTO3+41Rmzl//97MrvtA12NCdl5n7Z0n7eSMFv7of/RrvdnzPxrwy5KKAiAAAYF6v05PuRsfxjdkO9oY0c/F22/C+9/0OrVQAAAEBpXgK/y1vwm6/D/2VjzP9ijHnYeQIAACjrvxpj/k9jzP9etPzuMLwEf09vf6hyPwAA6Mtbr3/UyX0b7dKArzpfVMhiP//D5KT584kN5r/78z/vPOHe57fdJwIA0FD//f+43jz0Z3/Wadz/d+v/Nl/9x7+XndRn7AWAzOb/xPlKSUMH/3Rrcsbe0rfV+aIlQS8z+R/ZuePBjH4AAJAlt/EtX1/srM4nt/MVrM7X6zVtr/0yhr2PX2bxv+J8wZJV/P5i/9NmcucObtsDAGBAcgEgu++tsnjPvF2xb6De/6BL9kppX8YXdjlfZNU+AAC8KrF634oN/9Jj/4Ns0rPbGHNaK+1LSX/H4Rc7JX0AAOCXXABc++Vb/dYA+KHdSn9VZbfl3W17+s79+RL2Ow6/QEkfAIDAZB/+xffOmS/v3tN+UanwXzX4+4X+E4dfMJv3Pul8DwAACEOW951/82TRBMBVw79v8BeN6Utpf8+PX+6suQ8AAOKSuwAuvfGzotsA9/cb83/IeSTrNKEPAEC9yPD6nlde7txFpzhtF9ZTFQb/dGvyWH7bXUIfAIB66BP+G2zHXaUGv12cx1mNb9ePjhD6AADURJ/w32U78A41+O02uxmP/81fcX8+AAA1I+H/xOEXO1X5nFftBP0MJ/jtFUJmXF9u2duy/2mONQAANSTV+KlnDmgvzOnIZ4K/Z9OdB+4vzvOC85MAAEB9SAddVtDN2WeH7/Xgt6GfuV9friBYnAcAgPp74m9f1F5jptevBf8DazdNUOIHACARsguuUvLf1dvrfxD8063JWae3f9D5ZgAAUGNb9j+lvbgHHfveHv9s7zOkt89yvAAApEWG51t79+Rf83N2Ht/94Lcr/GQW6yH0AQBI05YZdZj+kOnp8c/kv9r6PsEPAECK5PY+ZVGfTPAf6v2KPFkmCAAAgDQ9svO7+df9XG/wZ1b2YYU+AADSJovv5cns/ofs+P7W3q8R/AAApK1gb53d0uN3tu6b2O6s/AMAABKjrOS37aF8mV+W6GWlPgAA0qf0+js9/o29j6x/1HkSAABIkNaRd3bnAwAAzbD2YecOvX0P5e/hV54EAAASpN2a7/T4123a5DwJAAA0gxP8AACguQh+AADGCMEPAMAYIfgBABgjBD8AAGOE4AcAYIwQ/AAAjJE143ywr556y9z7fNl5PKTW9580m/c+6e033L29bK798i3n8dB2vXREXQpyWLcufmjav/0wahtkDevHn3/WeXwU82+eNF/+6W7UdmzZ/7S6/eaw7vzhlvnonXejtsEEOKcA6MY2+CUw2xcvOY+H9sTfvuj1N3w2/zuzvLDoPB7S+kdb3j+g//X8B+bOp23n8ZB8hqWxgfnZlavO46H5PqfaFz+Mfk7JsSD0gTjGttQvgRmbBKa2fOIo5EM6tpbHioWxgRk79MUju77rPDaKKo6FbLnp+5xaquDixfdFGIBiYxv8BObwCExdFYEpQ0c+yTl173bc4S8xSfAD0YxlqV/K/EpgnjTGfOI8eXiy+dG+3u+OFJivOY+M5qgxZkP3J4SoWiiBOW+MOe08cXjbjDFHer87UmD6PqcOyVB47wO+A/Pm3Af5h1aMMcedJ47m1d7vpswPxDWWwS/jyYqjC+2lL9yHhzPdmrzc+42RAvPMQnvpmPPE4duwLf8h/Rf7n3aeN4qCwDy+0F464bEdTnDFCMyF9tKs88QRTLcmMz8vRGAqcxROez6ndmvBDyCesSz1FwSmz9Dflu+ZRQpMn71kY3v7Gb4DU6larARox6He/4gVmM6TRmADc2u+Hb7b8OXde0HbkT+n1qxb6/UuFwCrG7vgJzAHEjwwb7ntOO35IqwpgZnp7Utg+j6nlq44E16lahH8nAIQ19gFvxKYhsB0EZjlRQrMSsr8zpNGMN2aPNQ7X8R0Loj9znsBsLqxC36lzH+SwFQ549MEpq4JgSkXkso55cyNGFHmglguwujxA/GNVfDLB3SEMn9TAjPzId3au4fAVDQlMJVjcWOhvXTZeeJonEoYgPjGKvgJzHJsYGaqFr4Ds6Bq4W0mv0VglvDl3btaO3yfU7P5i7AtM34nvAIoZ+x6/DkEpi54YCpzFCQw55wnjqYJgelULXzPgleGv0zoc2rtponOXgkA4hub4C8IzKC9fQJTR2AOJDN0JIE5sf0xr79AORZeqxbTrcmNxpjneh9jpT6gOmMT/EqZ/0ZqtypVFZi+qxYEZjkxAlNWsVTaEXSOggmwfDWA8sYi+CUwlZ34CEydU5JNbVycwCyvYLOqoBfElPmBao3Fkr0EZjk2MDNr2vsOzIKqRdBjYQjMQsq6FvML7SVv+wvYVSwzF2FbZp5ynpc6uRD8o2ya9YdbTktkyE+Om/xLcU+C7qJntK05xiL4laAhMHXBA/PWb52gMSlOJIsQmE7VwvcchYLNqoKfU743q6qKvB9lCLFg/pBK9uyQISdZwtv33h0+yVwiadfy9Y8Hapt8XsjxrXPbmnzcymp88BcEZtCemSEwCxGYpTnrQfjeUTBS1SLTjhCbVcV28/wH5ubcBW1NkFXJeSP/5Ptla+ipgwe8zz0ZlnxW3jx/obPhVNlA7NVp269+bT761a9r2za5oGnacRtG44O/oMwfdCy2KYEZYlycwCwteGDKh1jOmQBl/sxmVSlP6pMOxO/feXeo4NAsLyyaSz/9x06QPPG3L1Z6QSSB+NE77w4V+Jpu22S48/Hnn620bU0+bsNqfPArW/ASmDqnauF7R0ECs5wYgRlpsyrnnEqxzC+9xaun3tYqh5obxpj8ubA7P/G3lwTJxX943Uw9c8Bs8fyeW420bf7nJzuvoYR5Y0x+efO+besOF+w4/GL0lRpjHTe5sElth8lGBz+BOZDMjoIhAlOpWrxPYKqcc8p3YCrHwoQ+p+SDP7XekXyGXPn5Ce1zpKu7K+bpfrcH23Nzxh7b5/Jfl562lMjvfHqrE5IxyLk8/+ZJ7XzuutHTtsK1QnraJhfd+7S2ye+RSZ0SkrHadu3UW6sdN8mCuVGP27VTbz+4uElFo4OfwCwnVmAqb8LkJpIpx8KErlpISdH3OaUMgZ1JbbOq0OScvfTTnxWVvyUUjy20l0qdw/b9Ks89Yd9vx/ITgk3n/Lp/23HoEKmibVIp+2937zaybbGOmy+Nvo9f+ZAOcasSgVmCciwMgemygZk9pzzPUYhUtXDmWqS0Wp+UifuExxtSBi4bHnnyGbTQXpK/z1/a8nmGhMjVU2853+fLKsH42kJ7aZuHtu2vom1SoenTNl/H7XtVtM2nxgZ/QZk/+AIrTQjMEFULArO04IEps7ZzVob9MOzDWcUypXuhL72hhoeUh/96ob101Me5a4NEztuT+a9JiCyePed8z6g6Y/pvnixq2/cW2kvHfPweOzQwU9Q2ZelxL22TYZmCtu33eNwu9ztuN915ZbXT2OBXJvUZAtOlVS18z1EgMAcSPDCVyU6+V7FMuswvs9uVToOEx0y/8eBh2V7kD/Pfvvjeuc7YsU8y2U15L3bb5nVXSfmcsm1zArLzN1YWzRmFXCj1OW6FcxRGaJ+07SdO22Suhue2+dbY4CcwSzuaf6LvwFSqFiuhJ8QRmLqCRUuCnlOyAloqs54laJW7NoIEYy97Afla/nEJal/k2CvncIy2OeHfmcz4zrvOc4dV4XE7rl3YXKt5yb+RwU9gDiR4YCplvdOpTSSLFJiZqoUEpu9zStmsaiW1zapCKiivHw0ZHl22zH6m9zH5HCt4TQP7vR60hyK1bTY/Li63wymfDUMpuIiYjdi293sfk8pDiOEMXxoZ/EpgGgLTRWCWFykwM+1ItGoRfLOqUKTXqNzPfibAcE4/s/YC/4H7K+nd7fMtqytYse6NECXwPg7l2+bjokbappT4z4QYlukjSNtCaWTwK2X+kwSmKvi4OIFZTozAlA9I5ZwKOuFVLsJS6fErH9QrWmUvJPs5lfmdcsyUzzQfbfMyka8se0dV5ny7p+9yOZC2u5z5ivbZFrhtX+T/ntI2pfNWC40LfjmJlCtbAlOX+ZBu7d1DYCqaEpjKsfC6WZXlVMJSIHcBKb39Ez5v/y3LVhhu9D69YLJyKQVDn8d9doYGcDzfMx4lHAuOWyVts+P9meOmvOdqoXHBT2CWYwMzU7XwHZgFVYugs+AJTF2MzaqmW5Oz+YuwLTNxl6AdVsFiX74v7gaR+d1Syr7rhncpBUOflbTNBnLmM0A5L0srOG4xh2b6/u77n4GjDdOE0Mgefw6BqQsemMqV/I0AY4pNCEynauF7FnxBqTi53R1DUXqNXhf7GoJzjg17a5/yfV7vcBqCc94pr7EU5b3pdVVTP21zzq3KNSr4CwLTeQONiMAsgcAcSGboSALT95afyrHwWrWIsVlVSErwxJwY5rDhlZkF/8ch7w1XJr5V3bbL+XL/sOGoXLDV4bhlyv11vKe/UcGvlPlvpHarUlWB6btqQWCWE2t3R6UdwVexTGULXnnPKR2GmLPdi2RewzABolzQiOC3uJWQeQ2yOdGgCoY+6tC2zHErOAaVakzwy5u3u1FCDwJT55RkUxsXJzDLKxgHDXpBnFKZvyBQqywXd2XK8QVBN7AY97aXkAnHL/80+Dj4vc9vO4/VJPjrcO701ZjgJzDLsYGZ2V3Kd2AWVC2CbyxEYOqUyV0hNqvKXITJFqwpq3icuCsTjsrM/FUplYxGq3juQlfm3BmmmhFaY4JfCRoCUxc8MG+599WaFCeSRQhMp2rhe45CwWZVye3uiOEo1QxnVzl4l/mMqOPFVyOCvyAwg/bMDIFZiMAszVkPwveOgpGqFsE3q8JwlPf2Lv6UwW2r+wtsRPAXlPmDjsU2JTBDjIsTmKUFD0xl45IzAcr82e2QE5nU1499r1Rtpvf3rx3i3JC7jhBdJvgnpqdqdwQaEfzKqlYEps6pWvjeUZDALCdGYBas2Ba8EpZamb/gAn6380h8mYsPX+e4XXK8apnXsOabgy+AtvbhTc5j063JGefB+Ojxh1ZVYCY6kSyzBniIwFSqFl4X1CAwy1OOhQl9Tslk19TK/LLqptIzrkOAZHv8Dw/+dy24vbV2wb/+UfXiq6+C86x+bdMvLCuVfPBXFZgRyvxJBmYTJpIpx8KErlpIObDgg2xoyhCY1xXbYmxWFYsSPJUGv60yZt6vBSG+Kvm8yqm6bc55M+znqVJGr7ptzufstwh+/5QP6RC3KhGYJSjHwhCYLvvBlz2nPM9RiFS1cOZapLRaXy/lgmWffe9XxXm/Dhv8yvcdqngOg3PeTGx3ArwUpW3PVdw2b8ctpKSDv6DMH3yBlSYEZogyP4FZmvPB5zswZQ/3nJUA+8o7q1j63qwqloL3tHOcIsps8TrK+1XpqGzQPtdisKHsbRtt5YLNxN5Kud/vrusdLkkHvzKpzxCYLq1q4XtSH4E5kOCBGWHZZ6dcW/AhnAR5Tytl46NV9B7tLoeZv60S3qVJGV25IyDqXvw9juZXPx3lvJG2KUMZtTluvj9nfUk6+KsIzEQnkjlXwL4DU6larISeEEdg6iJtVpU5p2RynO+1FGJTqkcbYm9fawMrE8qdv6372gairKS4dbo1GTX8bdsy541ckIx63ijhuiH2hY1tW+ZckeNW16GvZIO/qsAc9Q2Y15TAVHYUPJ3aRLJIgZmpWoT4cFA2q1pJbbOqKkgAKT3jI3aPjliO58/zLTNPj/x+lc8t5c6FVyPf2nc639ufOnjAedKgCo7bK5Fv7TuRb5uP4xZKssGvBKYhMF0EZnmRAtPb+GaRJuzuWJUdh1/QfvOJGAFpS8WZZcHlPN+y3+mtD0zOsceff1b7trkYZfHp1qRc0OzrfUxK9L6qRN/R23Y60nE7ml/nRS5EfBy3UJINfqXMf5LAVAUfFycwy4kRmHIhqZxTQSe8Sjg1ocdv7Azs1t49+Yc32IAMFiI29H+Rf3zH4Re9necSsso8hg2hw9+27ZX8408cftF57rDk/FPOwQ32oi3Y3Rm2ba/nH5cLyDpPdE0y+OUDugkTyaooycqHGoHpakpgKsfC62ZVllMJaxLpPSoTxoKFv+0xOqEv4/K+/7a7Xjqilfx3BWzbca1tU88c8L4WioStUvKXtl0O1LZjWtvkuNXxFr5eSQZ/VWOYiQZmpmrhOzALqhZBZ8ETmLoYm1XZHo4zltkk8j5/otPTdgJS2v3PvibFSS97ujV5WusxSs+8oDQ/Emnbnh+/rLWtG/7OvKYh27ZtujU5p/X0pfPhY2w/T9q260fqhU33uPlu26v5r8l7OsRx8y3ZHn9O8MD0PWO5KYGpzFGQwJxznjiaJgSmU7XwfU4pw18mxd0d60DaVBCQxk6K+8ReBA3MBv4xu33rc/nvl2qD9MxDkbbtKL6weV1CbdiJcT1t+5f8mL6xob/DY4k/b5XjJm2T3v+obbustU2OW8EckdpJLvgLAjNob5/A1BGYA8mEhASm73Kgciy8Vi1ibFZVJ6uEiHQMfmEvAI6WKSXLuTzdmjxhA//V/Hlt7Ht0zysvBx8f7vye4rZJqJ23IXl0tTFyG4jdti1rPWETIfS7VjluUtk47/u4SdtiHDdf1iTxKnsoZf4bqd2qVFVg+i7zE5jlxNrdUWlH8FUsm7AFbz8SIk+99p/N/M9PmuWFRe2ZW7ul+unW5IrtDX5h/3ej3bDFWXdfI+PeIUrgRaRte//uJ+bKz09oK6Aa+5pftz3lkdr2+N/8ldni3m8fTJOPmw9JBb8EZvvipfzDBKbOKcmmNi5OYJYXabMq55xqYpk/rzMu/srL5ub5D8zie+e0imPXhp4SsFPCLyIlYhkXrmJCmKxYKOG/ePZcZ9VK323rzlWo4jyJcdxkLkiK74Gkgr+KwExxIpkNzMwgoe/ALKhasB2yLnhgKutahNisKvOhqKwG12jSY5WFcG6ev7BaSJYi54H0FOuw4qG8Dlm5cPHsb7TO1cAkFGVFvTq0rcnHbVhJBb8SNCECM/Mh7fvgNiUwb/3WCRqT4kSyCIHpVC18n1MFm1Ult7tjCqQXKR/6sjiLdEQ+s//K6nYkOvfU1+yWL+n9yxi83M4o729pV0GZXHV/GG6qc5dH3XrBTT5uw0gm+AsCM0TPLFPmJzB1BGZpzsxvZU34kUSqWgTfrColEiRyPnbPyeXrH3eWEZfe5N3bt829z++vMyLvO3nu2ocnOnv+p1AWltcrvWT5J5+70q7l6/cvAO58est8+ae7nf/fbZv8r+w5n8L50O+4aW1L6bgNIpngLyjzBx2LbUpghhgXJzBLCx6YN+cu5B86E6DMH3SzqtRJL7AJPcE8Cb+mts00+LitJpnb+ZQteAlMnVOSVXavGgmBWU6Ddnd0zqlxLPMDTZFE8FcVmIlOJMusThUiMJWqxfsEpso5p3wHpnIsTOhzSsY6x7nMD6QuieCvqoeZ6Mzr4IHZhIlkyrEwoc8pubXJd2AqQ2BnUtusCkBcSQS/8iEdIjAzSzBGCszg94sTmLpIgZm9CPM8RyFS1cKZa9Hk1fqAcVD74C8o8xOYOqdqQWC6mhKYck9yjmxWFbT6EmKzKgBx1T74lUl9hsB0aWV+35P6CMyBNGF3R8r8QAPVPvirCMxEJ5I5W076DkylarESekIcgamLtFlV5pySRUxSXq0MwH21Dv6qepibPZeWlcA0KQamsqPg6dQmkkUKzMw5JYHp+yJM2axqJbXNqgBUo9bBX8W4eKTAPElgqpoSmMHPqSbs7gigGrUOfqXMT2DqnKoFgalrQmDKhaRyTgWd8BpisyoA1ajtkr3yAa2U+T+Zbk3OOE8eXhWBKb7w3I7Mh3Rr754YgXnZcxt2VxSYvtvhVC0i7O4ocy02hjynCH2gOWob/AWB+ar9F0SkHqY47zzike/ALKha7AvZjkiBKV53HvHIdxsKNqvaEPqckh3XADRDbUv9yodbcL5nLBcEZlAhAlOZoxBcpMAMzvc5pQx/BRdisyoA1all8BOYwyMwdVUFpu+dv6o4FqzUBzRLLYO/oMwfVIgxzGo+pP2W+QnM4YXY3bGKdrAFL9As33jsf3pkrned+qlnDpipgwc4zAAAJG75+sfm0k//MdOIZPbjBwAAoyP4AQAYIwQ/AABjhOAHAGCMEPwAAIwRgh8AgDFC8AMAMEac4L97+zbHHwCAhpLgn+tt2r3PnR3xAABAgrTl750ePwAAaIY7f7iVb8e8E/x3PnWeBAAAEiQbreV84ZT6pSygPBEAACRG6fF/IsH/Sf5R5YkAACC14Her+JcfWmgvSfCv9D66fH3R+WYAAJAO6cQrk/sud8f4M+X+zyrYDx8AAPgjW/LmLbSX5tTgv/Np29y9zW19AACkqn3xw/wrf9/03M53Ov/Vz+bp9QMAkCLpvEsnPqeT9Z3gt+P8871fvzl3gYMNAECC/vX8B9qL/jr4reO9X713e9nccssEAACgxuSWfCW/z9hOfib4T+dn9y+ePcexBQAgITfPX9Bm85/o/p8Hwb/QXvqCXj8AAOmSsf2bc06Z/8ZCe+nBXL78kr3H873+j955l5X8AABIwP3Mdnr7x3r/IxP8Wq9ffsDVU29zvAEAqLHPrlzt/MuZX2gvneh9yNmkxwb/jd4H5AdR8gcAoJ6kxH/11Fvaazuaf8AJftvrn80/LuUD1vAHAKBeZDj+ys9PaCX+N2SlvvyDTvAbu6SffEPvY/IDL/30Z4Q/AAA1IsPxymI9N/Jj+11q8Jv74X80v6iPhP+1U2+xnC8AADUg5X1lXF8m6R+yFXxHYfBbh/Kz/OWq4uI/vE7PHwCAikh5f/7Nk6Z98ZL2Ao4utJcuO49a3/jqq6+cB3tNtyZ32018NvQ+vmbdWrPj8IvmkZ07nO8BAABhSNVdxvSV8r74YX4W/8DBb/qEv9gy85R5/Plnne8BAAB+SVlfyvvKRD5TJvRN2eA3q4T/+kdbnfCf2P6Y830AAGA00suXu+uU8fyuUqFvBgl+83X4yw/e5XzRmE7ZXy4A1m2acL4GAAAGI2P5sva+LMNb0MtfsWP6pULfDBr85n74b7Th/5zzRUsuADbvfZLxfwAAhiA9fNlaVxbPKwh8Y2/ZO9RvIp9m4ODvmm5NztpV/pzSf9faTRNmcueOzhAAFwEAABSTu+WWr39s2hc/LJq410vW2jlWdMteP0MHv/m69y/hf8T5okLmAnzr25vNn61bZ/7j3//DfPORh90nAQDQcP/+b/9m/uvyinnoz9Z0Av/Op7f69ex7zdvSvrMiX1kjBX/XdGtyxq4QtM/5IgAAGNUN28MvPZZfxEvwd023JrfZC4D/ZIz5pvMEAAAwiLPGmDd799Mf1Wor95Vmy/4y7j9D6AMA4MVBmcBnO9ZejNzjt4F/1P4rnOgHAABGctKW+z8Z5YeMOrnvkL21r2/gy/K+MrN//aObzfpvb37w3wAAjCuZ1Cf36Xcn9y1fXzT3ym2C95pMrB9mRr8ZNvjL3Msv4d69n5+QBwBgdXL//mfzvzM35y6sdhEw1D38ZsgFfAqX7jX23v2pgwc6gQ8AAIYj9/TLBUCfZXrFTxbaS8edR/sYdMlembz3C+cLBD4AAEHIBcDi2XNmeWGx6MefXGgvzTqPFhhkk57C0Jcd+iT016xb53wNAACMbpWd+WRhn5ky4/5lt+VVQ1/GUm0loAAAGwtJREFU8Xf96Ahj+AAARCCTAed/frKo918q/FcN/qLQl+V397zyMr18AAAiky16Zfxf8f5Ce2nGffhrfYPf3q73T/nHW3v3mO88/yyhDwBARWTnvmun3tZ+ed8x/8Lgt6sEXc7P3pfQ33H4Ref5AAAgrj7h/8Oidf37Ldl7Oh/6E9NThD4AADUhd9I9cfgF7cUct7ffO9Tgn25NykY7u3ofkzH9XS+V2n0XAABEIuEv1ficDXahPYcT/LbE/2rvYzJ7/4nDLzKmDwBADUk1XjroObumW5NH8w86wS/lgfwDU88c6KyxDwAA6mnnS7OdjnrOMbvMvh78063Jmfz6+zKuv2X/0xxmAABqbN2mCbNlxsnrDXb33AfyPX6nJPD4889ynAEASICsoitL6Occ7e31Pwh+O7af6e3LZAFK/AAApEPCP0d6/Q/u6+/t8Tu9/amDP+BQAwCQEJnlr/X6u/+nN/gP9T5DxvbXud8IAABqTun1b+3e198JfvsfW3uf0fo+2+sCAJCiyZ07tFfdKfd3e/yH8l8t+CYAAFBzsu7OI26Oz/QGf2YnH3kyi/UAAJAuJfhlQZ+N3eDf1/sVGd8HAADpmtj+mPbaZx7SFvEveDIAAEiETNBXZvfvlh7/tvyj3LsPAED6lLvzOsGf6fEri/wDAIAEKRX8jc4mPUzqAwCgsbZJ8G/k+AIA0DwT253J+ludUr9SFgAAAA3hlPoBAEBzEfwAAIwRgh8AgDFC8AMAMEYIfgAAxgjBDwDAGCH4AQAYI2vG+WDf+cMt8+Xdu87jIa19eJO2dvJIlq9/HLUNxu7n4HOVx7u3l829z287j4ckr9/3vhScU8PzfU4B0I118M+/edLcu73sPB7SE4dfMOv2PuntN3x25WqnHbHN/JfXvP7GxbO/Me2Ll5zHQ2rt3WN2HH7R62+49NOfmS/v3nMeD2nXj454Df5bFz8010697Twe0pp1a83Mf/nfov5OYFyNbalfAjN26IvJnTucx0axdOV3sZvQCUzfPTM5HrFN7vyu9zbEDn0JzEc8n1NVHAvfbQBQbGyDv4rAlA83AtPVlMCUnnJsvtsgwxRVnFNbZp52HgMQxlj3+GPb7LHEbwjMkTQlMH2fU0sVtGHtpgnvcy0AFBvLMf6CwPzrhfbSaefJQ5puTZ4wxhzpfneIwFSqFjcW2kvbnCeO1o4vjDEbuv8dKTDfWGgvHXWePKTp1uQhY8w/9X6376pFQWB+b6G9dNl5dPh2yPn5XPe/JTB9b6qlHAuv59R0a1J2A82Msfke/gLQ31j2+AsC01voW4d6/yNEYCqT4by2wQbmht7HIgXmCeeR0WSOhQRmhHHxG55Df2Nv6JsAgSl3VijtOO48cTSH8t/d8ly1ANDf2AU/gTmQpgTmkd7HfAdmQdUi6LEwAQLzs3nngtj4fm9o5xRlfiCusQv+KgIz0sxrAlMXPDBv/VadoxD8Isx3YLbduRbzC+2lT5wnDmm6NbktX7XYMvOU1zYAWN3YBb8SNCECM/Mh7XsCVkFgBu2ZGQKzUITAdMr8vs8pKfPf+bSdfzj4Rdgju/xWwgCsbqyCP2JgZsr8vgOzoGoRdCy2KYEZYlw8QmDO5h9ofT/JMn+mHesfbXlfcRDA6sYq+AsCM7ke5r+e/yD/EIGpc3qYf7Hf7/3iTQnMm3MX8g+dCVDm39X7GJP6gGqMVfAXBGZyM68JzNIytwSGCEylavF+aoEp+wsoq1gGHzqizA9UY2yCv6rATHTmNYFZggRmE8bFlWNhQp9TMtmVMj9QjbEJ/qpKsonOvCYwS1COhQl9Tk1MT3kPTGUITMr8XzhPHNJ0a3K3MWZr73ezNj9QnbEJfuVDOkRg7ut9zHdgFlQtgi+w0oTADFG1iBSY2Yswz5P6IpX5ncmJrNYHVGcsgr8gMJPrYSpzFAyB6dKqFr7nKDQlMG/OOefUykJ7Keh7I8RmVQDKG4u1+gsCM+gtVwSmLlJgOuv8+w5MpWqxEnpCXKTdHX2vYtnoMr/cIrx8fdEsX/+4c25LJyN/fsvwzJpvrjPrH91sJrZPed9fIRRpm3zm/FGG5kq0TY5rKqswDnrcUmpbGWMR/FUEZqIzrwnMkpQdBU+nNi5esFlV0HNKVrH0vfhQFeRvJ+eAcuHkWF5Y7DzUee57X6/kOXXwB7Wc4Cjtav/2wwevu5/eti2+d65z+7J8ZkiHoa5tk9c66HGTtnXP3bq2bRCND/6qSrKbPY/FKoFpCExXgwIzc07Jh47vizBls6qV1Darik2O/e/feVf7TClNzh3ZL0T+Sa/yib99sRZBIu/NxbPnRmqbfK+sCSH/Wnv31Obixkfb5LjVsW3DaHzwVzGRLERgKlWLkwSmyrkISzQwg59TSq8nuc2qYpFS8LVfvlWqFzwI+Xn/16t/b6aeOWCmDh6opG3SObp26i1tHtRI5MJGzjFp2xbPQ4ZlhTpu3Qu3Ko/bKBof/EpgJnerkrx5lCtVAlOX6WHKlTmB6ZIekHIRFvQOkRCbVcUgx/vqqbe0v1evG8aYOWPMJ/Z/u7bZf/I5MZM/rl1SSv7syu/Mzpdmo/Yi5Tz46J13V2vbvDHmcp+2zeTvaOqSn/vRr37d+RvueulI1EmdJdu22nGbsceu73Hb88rLSU1YbXTwFwRm8HXUCUxdpMDMXIT5DsyCqgW7O+qSL/NLeFw79bbzuLVij/2Jsn87e47O5lf4FNLjvvgPr5s9P345ykQyCUVlqeauFXsheKLsbc+2bUe1iwDpcV9642fmicMvRmlbyeN23Efb5LhdePXvox03Hxp9O19VY5gEpqspganMUZDAnHOeOBrnnPIpxmZV063J2XwvKbVJfauEx2vSI1xoLx0d5IJJPn8W2ktyfP9SVqvMf13eI5d++rNO+T0kqWAUhP5KT9uODbLWiW2b9JD3a22TgIzRtpvnPyh73IZp2/e0tsU6br40OvgjfLjN5APT94dbQWAGvXghMHWRAtMp8/s+p5ThLxNjs6pUbmMz/UNfyt7fs6E49JChhI4Nkh/asH2gGyJ33WqlFxKMMj6tkLbt9tC2Odu2n+S/Jm271hk2uet8nw+d8v6vfq39JF/H7XK/tslxC9U2nxob/FXNvPYdNkrV4kZqM6+rCkzfVYtIgZk5p0IEpnIsvJb5Y2xWFZL02qQMrjgjY74+/1Z2saQZLfyv/Nz3qWU6960XBKNMFt7tczXThfbScdv7z7RNev5X9YuqkdyfpKj+3JMBjttx2/t3jtv8z086z6+bxga/EpjJ3aokgalcmROYOqeHmdq4eKzdHZV2BF/2OaUteK/pE/kkGA/5nBjcZc8hJ/wlIOUWNF/k86QgcKVtzlwlT22b09om5+BNfWG1oc2/qQZup20xj5vMZ/B53EJoZPAX9DC9Bg2BWZ5yLEIE5pHex3wHZoxzqkG7OzrnVCqTnuQDW7mtbV5b3MqnohCRWeO+Sv4F97GfCRX6XbZtzrktbfNVFi9o23ykts3kH5elsEMN1fjQyOBf0sv8zLzOITDLu/VbZ46CiXERlujujpmqRSqT+uRc1fYukOMSoseYZ9/bx/KPL579jfPcQd21C+vk3NDuSgrUtjk7se4B+Yz+vT6kMpA+x80J5BDsccuM+UvbfBy3UBoZ/ErQhAjMzIe07w+3gsAM2jMzBGahCIHplPl9n1NVbVble0fBUG6ev6B1GAaa2T4qO3acmTUuw32j9h4LQuhojAuaLplYZ6snD0jbRu31Fxy32G0LctxCaVzwRwzMTJnfd2AWlPmDjsU2JTBDjItHCEyn5+U7MCOV+YNvVhVKwZ0nvt9zZTjDCgUbjZVS8Jn4foA5T2U4bSvoHJSm9PZvBNhhsgynWjPKcQupccFfEJjJ9TCVE4bA1Dk9TN87CjYlMJVS75kAZf6gm1WFUrCnh/NBHoOtTp7p/VXKRUlpBUOfVbVtzu31D9+2gru3qmxbptdfkEeVa1zwt92rx/kUZ14TmKVlehAhAlP5YHo/tcAsCLbgQ0eP7EpjbX7lGK9U1GvsyvxuCbdhF4eRW/hyQqyhMYhMFUU+64YtiSttq9Vxk/dcHRf1aVTwy8mjbMbAzGsdgVmCvGmruAjzHZjKsTChzynZeS6VMr/y4VxFGfwBW4Z3boEbhuw7n1Np27TfrwR4Kcr3OT87Muf3K6+xco0K/qpKsonOvCYwS1COhQl9ToUITKXkGHyzqlQm9Zmevdd7VNkj7spUKu986lycrErG95VKT6Vts+ddptx/73PnNZaifMbUoW2Zcv8wxy20RgW/8iEdIjAzmzT4DsyCMn/wBVaaEJghqhaRAjN7EeY5MCOV+Z3Jiams1ldQZo42k7+PTIh9+afBZ78rlQxTx4uaYXrFBW3zvdHUMDKvYdiLmpAaE/wFgZlcD1OZ1GcITJdWtfA9R6EpganMeg4xDuqsYpnKNqX3Pr/tPFbxGHhX5v3iq+cY8za3Pka+sNJuAwyww+QwMn9f7XVWrTHBr0zqM6FvuSIwdZEC07ktyHdgKlWLldAT4hLd3dEp86e4BW8NZUJMmb2+KqVXvDLwD8GgMheNSoe0co0JfuV2l+CBmejMawKzJOWcOh16XDzE6o9KYATfrCqlTXnGTB16+6hYI4K/qpLsZs9jsUpgGgLTRWCWF2mzqkw7Uirz19zGUV+eMvF4q/Mk+La79+etreGdLY0I/iomkoX4cFPK/CcJTJVzEUZg6pqwHXJo2t/cvleqlnkNcrdHg4x8UaOxldmqZdpWx1taGxH8SmAGv1UpRGA2YSJZFdsht/buUT+8R9GEwJTKi3IRFvQOkRCbVYWm9IpFHQJk5IuPtQ9vch6bbk1G2bxmFZm2FRyDvia2P6Z9uQ4XbJm/75pv1q/6lXzwy20gSmAGX0edwNRFCszMRZjvwCyoWrC7o84ZOkqRUo6tXTgWBF1f0tuUc6vfz61I5rZo5e9fivJ99buoebR+W1InH/zKeHLwwEy4JEtglqCcUyGWOHXOKZ8KNmYJXrVIZQvevIntThnduXU3Jq3KOOxCYcoFg9ORidw252+rvMZSlL+J87Nj0t4TyrlVueSDP8KH20z+Dej7w60gMINevBCYuqYEpjL8ZUJXwqT3NewHeNWUi+CtFZfEnbtvhg0QZW7ArorHwp3zRgnwUpT3f9XHzfmcreN7Iungr2rmtXKyjUQp89+IUbXwqarAVD6wR9KUwFSOhdcyf4zNqmKSUFVK4pXs8mb/ts77ddgqY8EiY1W1bZvP86bgeyupaNi2Hel9rK5DX0kHvxKYUcr8Pklgti9eyv9EAlPnbIec2rh4rN0dlXYEX/Y5lS14NRKqyrm0r6Le47H8+3XLzFPOk8pap79PjlTU63fOw1EWEJPjJnOVco5UeNwy6jr0lWzwF/QwvQYNgVmecixCBGbmatp3YMY4pxq0u6NzTvnerCq2qYM/0H7jCXvuRWHH9l/J/21HrQgVXDhE3b7Wfp5mLnp9bEhVcNycC4yQ7IVG5vNJ2lbXoa9kg39JL/Mz8zqHwCzvVpxln4MHprKuhe/NqpyqRaqT+npJACm9x62xQsT+XZ0LtB2HX3CeOygJIGWsXyoaTi81BFtdcN5Ljz//7Mi/reC4yTyGmMfNadvUwQPOc+si2eBXgiZEYGY+pH1/uBUEpvPGHxGBWVITAjPSZlXOGGpKW/D2853nn9XG+qV07LTZJ3tuzGnrhfjqNT7xty86jxljXo3UttPa8IWv97D0+pXj9koTjlsISQZ/xMDMnKi+A7OgzB90LLYpgRliXLwJgRmpzB98s6qqyJjxjsNqQP5iujXpzLT3oSc8MnuBSJD56O13yTF6/G/+ynncts05N0O2TT6HfPaIO23TqwfR2+b7uIWQZPAXBGZyPUxlC14CU+dULXzvKNiUwLw5dyH/0BnP51TwzaqqJr01pXQsXp9uTXod87dj+k54iF0/OuJ9vZAt+58uatsvfJfGbdsua8EYom1SPevTNt/zvwqP254fv1z7vSqSDH5lC975FGdeE5ilZXpaIQJTqVq8n1pgRtqsyjmnCm4XS5r0+gtCRObLXPYxa9yOr6vh8cThF4KVimU4Q95DCimNj9w2+fy0bftnbVMg+duGmggqP1uZy2DscI3P4/bPRccthUmuyQW/BObywmL+YWZe6wjMEiQwq7gI8x2YyrEwoasWPmZl11Wf8JcwOz/dmpzTVqHrx4bi7HRrUt4jr+aHE40Nj5CTJaU3uueVl4vCf5dt24lBQ7In8Lttc0jbQt/bvuulI0Xhv6vnuA3TtqM9x80R+rj5tCaJV9mjqpJsguPiBGZJyrEwKQamMgQWYrOq7DnVkEl9RST8/2zdOm0Ixdj15mVm/A3bc5d/n/SuVmmrh7vtv5l8JbHX/bHhF6Ms+tIN/9+/8662joixlY0jtm2ne9r2oLI6aNukBB6jN9xt29VTbxW1bZ+9APDWtljHzZfkgl/5kA4RmJkNJHwHZkGZP/gCK00IzBBViyYEZqQyvzNJKuXV+sqSSWNSdpcgUW4hNrYCcKR72+x0a9J5wmrkvN750mzU6kl3IqNsIrP43rl+bXulu7bAMG2Ti1zphcce9+6U/bc/Zj56592gbZO7JVKreiUV/AWBmVwPU5nUZwhMl1a18D1HoSmBeXPOOadkFcug740Qm1XVlbT1qdf+c78e8lCktzj1zIHOpLuqyO+Wz7jFs7/x2rbuzP0qy9/yu+W9FuK4yQVhqutXJBX8yqQ+E/qWKwJTFykwndunfAemUrVYCT0hLtHdHZ3d4lLdgndY3R6y3DMuIVmwV0gpEopyH/vm7z9Zi4sn+YzrbdsoISmfmfJ5U5dQ9H3c5GJmMvGL3qSCX9n9LXhgJjrzmsAsSTmnTgco8wcNzIIPsuCbVY1DmV/TDUlj//ayZ8gf9fkuGd0lXOX413Xmd7dtMvNfOijL1z82y9cXtc+sB+RckOGCVNom68BIm5p03AaVTPBXVZLd7HksVglMQ2C6CMzyIm1WlWnHOJX5+5G/Q+95KZ9TEiy9JCxS+1vJ65Uee2+vvUlta+pxKyuZ4K9iIlmIDzelzH+SwFQ5F2EEpq4J2yE3RVN6hBra1hzJ3MevBGaImdfBA7MJE8mq2A5Z7qcmMF1SeVEuwoLeIRJisyoA8SQR/DLOpARm8HXUCUxdpMDMXIT5DsyCqgW7O+qcoSMA6Uoi+JXx5OCBmXBJlsAsQTmnbvQuvOKJc075FGOzKq1q0YQteIFxlkTwR/hwm8kHpu8Pt4LADHrxQmDqmhKYyvCXCV0Jk9uZ6rzdKIDV1T74q5p57TtslDL/jRhVC5+qCkzfVYumBKZyLLyW+WNsVgUgvtoHvxKYUcr8PklgKgtiEJg6Zzvk1MbFY+3uqLQj+LLPTduCFxhHtQ7+gh6m732VCcySlGMRIjCP9D7mOzBjnFMN2t3ROafG7bYnoIlqHfxLepmfmdc5BGZ5t+Is+xw8MJV1LXxvVuVULZjUBzRDrYNfCZoQgZn5kPb94VYQmEF7ZobALNSEwIy0WZVze2vTt+AFxkVtgz9iYGbK/L4Ds6DMH3QstimBGWJcvAmBGanMH3yzKgDVqO2SvQWBOTPdmvR569i23v8IEZgFW/CeGGbv5z729X4pUmBu9HwsNuYf8L2jYEFgztp5Hr7s7v05IQLz5tyF/EMrAc6poJtVAahObYO/YAveXc4jHkUKTJMPat8iBebW/NoHPoUITKVqYUKfU5F2d9wQ+pyS/doBNEMtS/0SmMsLi87joUWaeR1UxMAMKkRgFlyEBeU7MKs4FrItKWV+oDlqGfxVBWaEcfHgCExdUwKzYAgsKCb1Ac1Sy1L/mm+uM1PPHHAeD2li+5T3n/7Izu92/sXkOzBlkmXsYyG3VPoOzG99e3Py55QciypuqWO1PqBZahn8TblfeOpg3KAJQZaZbcLa7E04p2TTqCacUwCqlcx+/AAAYHQEPwAAY4TgBwBgjBD8AACMEYIfAIAxQvADADBGCH4AAMaIBH9mh7U7n97i+AMA0FBO8H/5p7scawAAGkCWXc9ZodQPAEBDfXn3Xr5hl50efxW74gEAAP+04Xsn+I3dFhcAAKTt3ue3869/7qGF9tJc/tHl6x9zqAEASJjs6Klsq/5Jd4x/vvdRgh8AgLQtX1eH7ue6wZ/p9Rc8GQAAJGLpyu/yL/TGQnvpEzX4791eptcPAEDCPrtyNf/iO1nfCf6F9tJpubev96u3Ln7I8QYAIEES+sqtfJL1mSV7T/d+tX3xUmdiAAAASMvN8x/kX++K7eRngv9E/lk3z1/gUAMAkBAZqlfW5HmQ8Q+C397Wl5ndf3PuA3r9AAAkZPHsOe3FHu/+n/ySvcd7/0PGB37/zrvOdwMAgPop6O2flNn8avAvtJdO5Hv9MtbPDH8AAOpNKvRXT72tvcZjvf+hbdJzNP+A/CBK/gAA1JdU6O+5S+6/0dvbN1rw27H+M72PyQ8quIoAAAAVk1vwpUKfs5Lv7avBb83m7+uXewILJgwAAICKyJ771/TO+exCe+mLUsFvnzibf3zxvXMs7AMAQE1I6F/66c+0F3Oye99+nhr85uvV/F7LPy5XFYQ/AADV6oa+skLf/EJ7yem8d33jq6++ch7sNd2alJn+R/KPb5l5yjz+/LPO8wEAQFhyt938mye10Jdh+m1aib908Jv74X/ZGLMr//gjO3eYHYdfMGvWrXO+BwAA+CfL8X70q19rP1dCf2ahvXTZ+UqPssG/0a7lvy//tbWbJjrhP7H9Mef7AACAH3dvL5trv3xLW6DHlA19Uzb4u4rK/sb2/qX0v27ThPM1AAAwPLmr7v4y+k5p39iF92bLhL4ZNPjN/fCXewJfdb5gtfbuMVMHf8AFAAAAI5CF85bsrfTKwjxd7xtjDvUb088bOPjN/fCfsaX/Dc4XLakAbN77ZOd/AQBAOTJbv33xw84ddAU9/K7XFtpLzgI9qxkq+M3X4/7Hi0r/XWvWre2M/09MT5n1397MXAAAAHpI0N/59Nb9DXauL/br3XcNVNrPGzr4u2zv/5g28a+IXAysf3RzwVcBAGg+maxXIuR7yQS+o3ZDvaGNHPxdw1wAAACAVd2wFfYTg4zlF/EW/F3Trcnddrnf2X5zAAAAQF9nbNirS+8Oy3vw97IXAYfk3kIqAQAA9CVj93Pdfz5695qgwZ833ZrcJksJGmPkgmCj8wQAAMaLhHx3S/zwjDH/PySEefUlzVkXAAAAAElFTkSuQmCC;fontFamily=FZLTHJW--GB1-0;" vertex="1" parent="1">
          <mxGeometry x="125.14999999999998" y="93" width="61.7" height="64" as="geometry" />
        </mxCell>
        <mxCell id="w3XPrhG8B_gGQLfjwU7v-2" value="&lt;font style=&quot;font-size: 18px;&quot; color=&quot;#4a909b&quot;&gt;服务A&lt;/font&gt;" style="text;html=1;strokeColor=none;fillColor=none;align=center;verticalAlign=middle;whiteSpace=wrap;rounded=0;fontSize=18;fontFamily=FZLTHJW--GB1-0;" vertex="1" parent="1">
          <mxGeometry x="65.00000000000006" y="175" width="179" height="20" as="geometry" />
        </mxCell>
        <mxCell id="w3XPrhG8B_gGQLfjwU7v-3" value="&lt;font style=&quot;font-size: 18px;&quot; color=&quot;#4a909b&quot;&gt;服务B&lt;/font&gt;" style="text;html=1;strokeColor=none;fillColor=none;align=center;verticalAlign=middle;whiteSpace=wrap;rounded=0;fontSize=18;fontFamily=FZLTHJW--GB1-0;" vertex="1" parent="1">
          <mxGeometry x="338.00000000000006" y="175" width="179" height="20" as="geometry" />
        </mxCell>
        <mxCell id="w3XPrhG8B_gGQLfjwU7v-4" value="" style="shape=image;verticalLabelPosition=bottom;labelBackgroundColor=default;verticalAlign=top;aspect=fixed;imageAspect=0;image=data:image/png,iVBORw0KGgoAAAANSUhEUgAAAf4AAAIRCAYAAACrld/vAAAACXBIWXMAAC4jAAAuIwF4pT92AAAgAElEQVR4nO3dUYyU1533+RMvswPZsNBYbm3hDDDtxpFMBERYIhe2aC6I1khjM2O99g0jOtLG8lVMrnbeK+PVSjP73hjnKhNfBBRubMkZcFZYChe0ZVYKktHQKCDFtHsME1O7bZl2L9nAO69nvPoXp3A9z/k/1U9VnXOe5zz1/UgocXV1d51+nqrfc/7nPOd846uvvjLAaqZbk9uMMfJvZpWnAqiPOWPMJwvtpU84Jugi+FHIhv2s/be16HkAau+GMeaE/OMiAAQ/HNOtyY3GmKP23wbnCQBS9pox5vhCe+kLjuJ4IvjxAIEPjI0VY8yxhfbScQ75+CH4MVDgr900YdZtmnAeB1Avd28vm3u3l1d7TTIEcHShvXTa+Qoai+Afc9OtSRm/P9ZvDH9iesq0vv+kmdy5w6xZt875OoB6+vLuXbN05app//ZDs7yw2O81vm8vAC47X0HjEPxjqkzgS+9+x+EXzMT2x5yvAUjLZ1eumt+/8+5qVYCTdgiACYANRvCPmenW5CGZ2LNa4E8dPGA2733S+RqAtN08/4FZfO+c+fLuvaJ2rNjPCCYANhTBPyamW5Mztoe/r6jFBD4wHmQI4Ob5C50LgD5WbPn/RPFTkCKCv+HKBP6adWvNlpmnO6EPYHzIBMDFs78x7YuX+rVZJgDOLrSX5pyvIEkEf0PZxXdOlAn8LfufYtIeMMaWr39sFs+eYwLgmCD4G8YGvvTwjxS1jMAHoGEC4Hgg+BuiTOCL1t49ZurgD7gXH0Ah6f3fnPuACYANRfAnrmfxnVf7tYTABzAImQB4/wLgQr/vYgJgggj+RJVdbY/ABzAKmQD40TvvdoYB+mACYEII/sSUDXxZbU9m6bP4DgAfBpgAOMv4f70R/Akpu7wugQ8glFsXP+xcAJSYAHiU8f96IvgTUCbw1z/aMo8//yyBDyAKJgCmi+CvMZbXBVBnJScA3rC3/zEBsCYI/hpieV0AKSk5AXDelv+ZAFgxgr9Gyi6vO/XMAbNl/9PO1wCgSjIBUC4A7nza7vcqmABYMYK/BlheF0CTMAGw3gj+CrG8LoCm6u4AyATA+iH4KzDI8rrfef5ZAh9AsuQCQNb/L7EDIBMAIyH4I2J5XQDjSiYAXvvlW2UWADrGBMCwCP4IWF4XAO4rOQHwjB3/ZwJgAAR/QCyvCwC6khMA37AVAMb/PSL4A7Gr7R0n8AFAN8gEwIX20jHnKxgKwe8Zy+sCwGCYABgXwe9JmcBntT0AKMYEwDgI/hGxvC4A+CUTAK+eenu18X8mAA6J4B8Sy+sCQFgyAVDuAOgz/m+YADg4gn9A063J3XbSXt/AZ7U9ABjdABMAJfyPO1+Bg+AvieV1AaA6Mv6/ePY3ZSYASvn/tPMVPEDwr4LldQGgPu784Van/M8EwOER/AXs4jsS+K/oz7iP1fYAIL6SEwBP2gsAJgD2IPhzWF4XANJRcgLga+wA+DWC3xpkeV1ZfGf9tzc7XwMAxMcEwMEQ/CyvCwCNwATAcsY6+MustkfgA0BaZPxfNgBiAqBuLIOf5XUBoPk+u3K1swcAEwCzxir4WV4XAMbPzfMfmMX3zvUb/zfjNAFwLIK/7PK6MmmPwAeA5ulOAJQLgD5W7Ph/o3cAbHTws7wuAKDXABMAZ5s6/t/I4Gd5XQBAPwNMAJQKwGXnKwlrVPCXXV53y8xTnXF8Ah8Axts4TgBsRPCzvC4AYBQlJgCu2KHj5CcAJh38LK8LAPBlXCYAJhn8LK8LAAhFJgDK+v8yDNBHshMAkwv+6dbkUVvW7xv4rLYHABhFUycAJhP8LK8LAKiC7AAoFwAlJgAeTWH8v/bBP92aPGQnVBQGPqvtAQBCk/AvsQNg7ScA1jb47Ti+TJ54zvmiReADAGKSCYD3LwAu9PutMv5/qK7l/1oGvw19mTCxy/kiy+sCACpWYgLgip38V7vtf2sX/P1Cn9X2AAB1UmIC4Pfq1vOvY/Cf1sr7rLYHAKgrmQAoFQBl/F96/tvqNOZfq+C3E/n+qfcx6eXv+tERZuoDAGpNxv8vvfEzc+fTdv5lnlxoL83W5bU/5DxSreP5307oAwBSIBXpPa+83Jl4nnPE7iVTC7UJfrtnfuaWvalnuCcfAJAOCf8dh1/QXu9R55GK1KnHf6j3PzoT+fY/5TwJAIA6kw7rIzt39M24KtUp+Gd6/0P+aEzkAwCkSLndfGtdyv11Cv7M7XuU+AEAqZrYPqW9coK/H7bQBQCkqs4V69oGPwAA8K+2wa8sggAAAEZUp+C/0fsfd/5wy3kCAAApKMiwWqzeV6fgz6xl/NmV3zlPAAAgBe2LHzqvsi5r9tcp+DM7GMmSh7L5AQAAKZGle2+5wX+mLk2oW/Cv9D4gGx4AAJCSm+cvaPPUarM9b22C3+5cdKL3Men1Xz31lvNcAADqSHr6i++dy7+yGwvtpRN1ebl1m9V/LN/rb1+8RPgDAGpPQv/aqbe1l1mbdfpNTffjd7bmFbLbkezHryyDCABAZWQGv/TyP7tyVXsJtdqS11QR/HYXPrHbGLPRecJ9/7MxZq/zqJQo1qwxax+eMH++fr3zNQAAYvlvd++af/t/75h/u/PHot/4/9ghbGfA35qz/3vZDndHETT47YYEh+wGPLvz2+4CAICOFXtbu1wMnA5565/34O8J+9n8xjsAAKCUFXsnwHHfFwHegn+6NbnbTmA44nwRAAAMa95eAHi5M2Dk4Lc9/OPGmOecL/axZt1as/7RzcVPAACgoe7eXjb3bi8P2jhZ2v7oQntppDUBRgr+6dak3H73qvOFnPWPtswjO79r1n97s/nWtzez5S4AAHaVP7krYPn6ornz6a3OirXK4j9578tw+kJ76RPnKyUMFfy2rH+i3xi+hP1f7H/aTO7cUet9iQEAqBO5LXDpyu8669j0sWJ7/wOX/wcO/unWpEza+4XzBau1d4/ZMvN0p3cPAACGI9UAWf735twH/aoAJ+0FQOnbAQcK/unW5ImiyXsT01Pm8eefJfABAPBILgAWz54zN+cuFP1Qmfw3Uzb8Swd/UejLJD0JfFbUAwAgHJkLcO3UW519bBSlw79U8BeFvozj73xplsl6AABEIjvXFvT+S4X/qsFfFPoylr/j8IvO8wEAQFh9NgRaNfz77s5nJ/IR+gAA1IgMr+/9X492httzdq22939h8Ntb9pzZ+4Q+AADVk8n0e378shb+++w6Oyo1+Kdbkxu1KwZCHwCA+pDwL8jlV3t2w81Qg98Ycyy/k57crlfwwwEAQEUe2bnDPP43f6X98hO2I98/+O0Vwiu9j0kZYddLzlA/AACogS37n+5cAORstZvn9Q9+29vPkJ4+y+4CAFBfOw6/oI33v2o303sgE/y2t7+v9zG5glCuIgAAQI1IB10W1FNkOvT5Hr/T2y/4IQAAoGbkNj+Zk5dzpLfX/yD47e17md6+zOJnVT4AANIxdfCA9lpnu/+nt8fvTACYOvgD5zsBAEB9TWx/TOv1q8F/qPcZ9PYBAEhT6/vOxnlbp1uTnZzvBL/9jw29z5jc+V0ONwAACZKxfmWG/9fBLwv6935FnsxMfgAA0qXkeCfr1eBXngwAABKiVO6l3L+tG/y7er8iEwMAAEC6JrY7E/zE7oe0RfzXP7rZeSYAAEiHLOiz/tGWG/zGmG35R2W3HwAAkLa1D29aPfiVqwMAAJAgpYK/0dmkh814AABoBuWWvm1Ojx8AADSDMnS/1Ql+ZvQDANBcTqkfAAAQ/AAAoAEIfgAAxgjBDwDAGCH4AQAYIwQ/AABjhOAHAGCMrBnng33r4ofm3ufLzuMhyW5JvtdKWDx7znkstNb3nzTrNk14+y3L1z82y9cXncdDWvvwhNm890mvv6EJ59SXd++am+cvOI+HtmX/U6wcCkQw1sH/0Tvvmi/v3nMeD2nXt494/emfXblqFt+LG/yyBOTUwQPO46O4OXeh05aYWnv3eA1+Ccxrp952Hg9t786jXn/DUgXn1NpNE97PKQC6sS31S8jEDn0JzEd27nAeH4X0MGPz3QYJzNihL3z39pcqaIMEprIk50jav41/Tk16PqcAFBvb4F+68jvnsdAITF1Vgel7yKWKY+E7MO/eXjbLC3GHXEyn+uL3nAJQbCxL/RKY7YuX8g/fMMZ84jx5eLIHwtbe757c+V2v7SgIzPedR0az2xizofsTIgXmijHmsvPE4W2UUZbe7w4RmEo75o0xXzhPHp5zTvkOzM/m1Qvi4OeU76oFgGJjGfwFgXloob3kLWymW5MnjDEPBvTlw813j18JmhsL7aUZ54lDmm5NSmBmZqpFCsxjC+2l486Th2/HrDHmF72PRQpMOae8XUxOtyZP9wZ/kDK/O3Q07/mckouXf+l9bMvMU87zAIQzlqV+JWhueA79jb2hbwIEZkGZ/4TzxNEcyn93pMA87TzisR0RA9Nn6EtgPtf7mO/AlIuwO5+28w8HP6ce2eW3Egagv7EL/oLADBo0JkBg3tInYAX9kE40MDfmA9P3HIWmBGbBpD7f7Zjt/Y/1j7a83hYKYHVjF/wFZX5vZWWLwCwhUmDO5h+QNQh8ilS1CB6Yyh0iZxbaS97mKNiqRWauBZP6gPjGLvj/9fwH+YeCB2aIcXECs7TggSlrEOScCVDmDxqYd/5wy9y77Sw8FLwSRpkfiG+sgr+qkuxf7H/aedIoCMxyCMzylAqSCdCOzEpDMtmVMj8Q31gFf6TAzHy4hQhM5UP6fQJTRWCWpAyB+S7z787fiuj7LhcA5YxV8Csf0iFmXgcPzEZMJHOPhQldtZiYniIwFbJPgnIRFnzoiNX6gGqMTfAXlPmDTuozBGahSIGZvQjzPEchUtUieGAqk/pWFtpLQasvcvHChjxANcYm+JVJfSbFcXECs7TggXlzzjmnJDCDVl9CBGbo21sp8wP1MjbBHyEwnTK/70l9BOZACMwSCjarCjpHQTar8n1rKIDyxmLJ3kiB6eyN6jswlTL/SugJcQSmrimBqWxWFaXM32QyrHjv89udFsr6HU0a0uhtm+89O6rW5LbljUXwK4FpUgxMZSz2dGoTySIFZqZqIYHp+yKsCYFZsIql18rLdGvyUO+GPCbAZlVVkk6F/A1lguSdT29p53ZHdxEvmS8j835SuI1R2rR8fXHVtsmQ5rekbdsf67zPUrjQKXvcpG1rH97Uee9J+5py++lYBL9S5j9JYKqaEpiZdiRatQgemEv6ORV0yEXOqdR7/HLBdPP8hc6FuFJJVMnz7tkNqT761a87FwAyd6ZuQx7S65Wlm2U4Tjk3VDJpWv7JjqfX7PtN2lW34zzMceu2rft+r+txG1Tjg18OmHKQkxsXJzDLiRGY8sGhfCgGvUMkRGAqx8LrZlVWY8r83eAYJBSLLC8sdv4tnj1nvvP8s5X/XaRt8lqURbUGJueV/JPe8uPPP1t52TzUcdtx+IVkhwQaH/xVlGRbe/cQmAoCcyBVlPl9n1Oz+XNqy4zfCa+xSEn46qm3tU7ESOTnzb95snN8JUiqKJPLeXD11Fvae3Mk0lO+9NN/rLRtIY9b1W0bReNn9UcKzEyZ33dgFpT5kyvJKseCwFTECExl+MukuLtjDNK7kw/5VcLjjDHmNWPMfvm30F76hlSG7X//tf3avPNdlpxTF179+87Yc0wfvfNu58JD+XzpWrFt+4lty/ds2/6yp21vrNa23/7D8ehtK3Hc8m1L5riNqtE9/oLADNrbDxGYyqQ+Ccw554mjaUJgOlUL/7PgnTaYJLdDdrfgnfd5ERZjs6oYpCcsY9cFbhhjjhVNsrWPdd+ncq4fs7f9zto7NjLnqnxWXfw/jpsnDr8QZQx5lba9L+d10W22dsXT7qqnnfexbdtR275M2+73kH9m9vz45SgXf6u0TYL8eJ+2DXzcpG07Dr+YzFBWo3v8Spn/RkNmXhOYuswcBQlM32NwyrHwWrWItbujjFPmBF/2ObUtePuEh/QUf7jQXtom4aGFfhEJzIX2klwsbLM9Zce1U29rF/te9WnbDdvznSkKxiK2bUdt207mn9YNyNC941XaJsdt95BtKzxu0japnMjQQgoaG/wSmMrBT3LmtYLAzIkVmEo7gi/77DswI21WlXSZX8rEyueHsaXhbaMuOCUXCzYkv2cDKUNK8KECsk8wSljvHrWaaNs2a8vlK71f64b/3eLy+0jk71bQtjO2bb6Om9M2IeGfQtm/scFfVUk2tXFxArO8pgSmsq5FiM2qMufUlpmnnOfVlfTaFt87p706uQ34kM9bge17eXd+HLnbg5QOjE9SSSgIxp9IWHtum1xAzGhtu/Jz3x/F9z8rC+5KeCPAcZuzvX+nbSGOm2+NDX4laEIE5pHex3wHZkGZP7mSLIFZTozALNisKrndHUOR95x8cCtO2l6sdzaQnICUcfHfv/Out18nx/4j/edJ+dv3hXiH/cydyVc15ByUqoovctykkqF4w/bQQ7St8Lj5bFsIjQz+gsAMvte778C85U7AMklOJAsfmE7VwvcchaYEpjKpz4QeOgqxWVUo8oGtTAg+Eyr0u3pCJFM+lt65r3HjxbO/0dp2MsA+GRm2bYfybZOqiq+Sv1wgFbQtSOh3FbVNKg91Hu9vZPAXlPmDlpYJTF2kwHQ+lH3vKBipahE8MJVJY8E3q0plUp+cq0qp+IZ2foXQEyIZPnqPEkJKiX8+9AVNl+35OyEsFyOj6qw26Lbthvb7ArXtE+0cqXOvv5HBr2zBGzwwQ4yLE5ilBQ9MJRDOBCjzBw3MSJtVOcGVSplf+dwQR31eGK3Gjh1nxho6q8WN2HtULvhMrGDsspWF93sfk8AetddfcPHgdb7CauzdYmd6nybHra4T/RoX/FWVZH1vwUtglkNglqdUkEzoHQVlsmsqZX4lHN8PcPtvGcdKvLbSCu5wOhlgLZCh2lZwwVVKwbDu+xW1zbmQUrYgr4XGBX+kwMwc4BCBqXxIv09gqgjMkpQhMN9l/uCbVYVSsNhXkAlvq7Hv80yvXwm30pTjbips21y+11/w+kop2GjKubiIwfdxC6lxwa98SIeYeR08MBsxkcw9FiZ01UJ2zyIwXVIqVi7Cgg8dpbJan7LYV4g9PQaROTYSbsOW+5Xw8bpK4xAybZPzctiSuPI3CbGq6SAy58woxy2kRgV/QZk/+P3iBKYuUmBmL8I8z1GIVLUIHphKqTj4ZlUhdncM5Y9u8FQZ+t2ecWamuOyNPwwleCptm/b7ZU/8YSh/E+dnx2TfU16OW0iNCv6CsaLkxsUJzNKCB6YyRrcS4Pan4IGp9Pp8r2KZbJnf2PvKc6rsNXZlXoMS4KuSzpBSCq+0bfazLFPuVy68SlE+Y+pw3DLVlGEvakJqVPBHCEynzO97Uh+BORACs4SC8eugcxRks6oYG834UFBmrrIU7u013Pv8tvNYHdtWcAz6KrgQqkPbMhcfX/6pfqv4NSb4IwWmM2vTd2AqZf6V0BPiCExdUwIz0vi1c06lQlteteIx8K7M3CRlY6WhxLzNrY8gr8HnfC5fQu1LMIrGBL8SmCbFwFTGYtUtP4fVoMDMVC0kMH1fhDUhMAtud/JaeYmxWdWYGjnElJ60syEQvMv0+JUOaeUaE/xKmf8kgalqSmBm2pFo1SLK7o7KORV0yEXOqZR6/GNm47j/AdCQ4JcPaOWqKrlxcQKznBiBKZUXJTCD3iESIjCVY+F1syor2TJ/zW0b9eUpy4hvcJ4E32Z6f97aGi5g1Yjgr6Ik29q7h8BUEJgDqaLM7/ucms2fU1tm/E54DU17H0+3JmecB+PLBL/ccuuDXXK8Vm3zxU7ArpU6rlzZmB5/TojAzJT5fQdmQZk/uZKsciwITEWMwFSGv0yKuzuGVvB66xAgu3v/Y8033QuU1ax9eJP2jN3OI/FlXkPBMehrYvtj2pfr0LZsj/9hgt+7gsAM2tsPEZjKpL4QK1A1ITCdqoX/WfBOG0yS2yG7W/B6XbEtxmZVsch6HDl16PFnXsP6Rwc/P6S3KZ9XOc4iZDHZ8yZzW/S3hjz3lTJ6HY7bvt7/GOa4hZZ88Ctl/hsNmXlNYOoycxTkjV9w5T805Vh4rVrE2t1Ruf0r+LLPqWzBm6ecQ07bYtLerxPbhyv1161t2u9XXmMpyt/E+dkx2ePmpW0hJR38BbtOJTnzWkFg5sQKTKUdwZd99h2YkTarSr7M36W8FzbY4ZiqOFVG5TWWonRUtlY8h8H5LBp2HFz5LN6qhW9Ezl1TdXxPJB38VZVklTfSSJSgITB1zhuawNQp61qE2Kwqc05tmXnKeV4q7t/d4pTEKwl++7c90vvYKJ85Be/1SnawsxccmVL4KJXHguPmLLQWg/aeqOvqlUkHvxI0IQIz8wYseBMNraDMn1xJlsAsR/tw8B2YBZtVJbe7Y2zK5Mp9FfX6nQtm5bWVJnctyF1IOfsq6vU7Fxyj7hOihOu+inr9znvM95LuviQb/AWBGXyvd9+BecudgGW0E2hETQhMp2qhvOFH0pTAVCb1mdBDRyE2q4pty/6ntN7j8Zi3v9nAypznchvfqO/XqYM/cB6TcyJy247me/tyQTLqeVMQrrGP22y+bVKNqOt7ItngLyjzO1fKIyIwS4gUmE7Py/eOgpGqFsEDU7lDJPhmValO6uslPWOlZ70h1lavdnVQ533z+PPPOs8dlJxjSq9/a4DPTJVt2+u9X5OLrIILkoFI25Sq2Vbtbxmwbc7f0cdxCyXZ4Fe24A0emCHGxQnM0oIH5s25C/mHzgQo8wcNzEibVTWuzN8lvX7lFjEpHQcNEft5c8Jd2+Epb52N7zz/rFbROBKhbbu17XLlIsvXe3jq4AHtuD0X6bidzh+3qWcO1LoClmTwV1WSLSgpDY3ALIfALE+pIJnQOwrWuaQ5KOn17/rREe27ggWkPb/n8ue4vFcl0HyRtu04/KL200K2rRv6mWAM07YXnMcjtS2zuJvvtoWQZPBHCszMh1uIwFQ+pN8nMFUEZknKEJjvMn/wzaqqJj3sJ4pD5LLPZWHtBLvL+fep9MyfOPyiupzwKORYKWXxbttO+xwXt+PeTuhL2/a88rLz/FHJ7Y6P/81faT9F2jbnuW2HtIu17nGruySDX/mQDjHzOnhgNmIimXssTOiqhUx2IjBdy9c/1i7Cgg8dpbpaXz8yD0YZEzf2c+Gynag2NPmMsT3R82ow/vjlYPd/y9hzQdtkaPOTUe9ksG2Tz4BfFLXN9wVN15b9Txe1bZ9tm4/jJm37p6K2pbCWRXLBX1DmdyZWjIjALClSYGYvwjzPUYhUtXA+TH0HpjKpL/hmVSF2d6wLKYsX9I7lA//16dZkJ0gG6UnK+WwD/1/ytwqbiOEhbSsISGnbL2zbZkdo23P5r9ekbT6OW2Vt82VNEq+yhzKpz6Q4Lk5glhY8MG/OOeeUBGbQ6kui2yE3vsyfJ71jWUf+2qm3na/Zv8XrNkzm7d9byvb59/Fu+28m//frJZPTZH5BrPCQgFy3aZNZfO+c8zX7On9hLwLet2Xtodsmn6E7X5qNNhdE2ial/xLHzUvbpLyf0qqVyQV/hMB0yvy+J/URmAMhMEuItFlVpkwqvZy6rkzmk7RRNlq5duotrdrYtSv/uTEIqSzIhLDY1RP5nbLe/dVTb2ufSV378veoD0LaVsWtbSWP28htq+K4jSqp4I8UmM4YkO/AVMr8K6EnxBGYuqYEprJZVZQy/7iQ3tzev/uJuXn+g04PWTlnhiLDb/fDt7qNXOR3f//vjpqb5y90LuZ9tk0Cv8qecPe4LZ49571tVR+3USQV/EpgmhQDUxmLPZ3aRLJIgelseOH7IqwJgVmwiqXXykuMzapSIJPHNn//yU7lUYYd+/Qk++rOrq9LcMhnnASZrGMgq4nKLbpKJ6sUGV+XC9s6hWK3baMetzq2bRhJBb9S5j9JYKqaEpiZdiRatYiyu6NyTgUdcpFzapx6/L3kHJQPf/nX2Zxq/nedLZDvfX67MFC6y+5KYEhpva6l4c7qhfuf7vyTCqvcKdKvbZ3d5x7dnEzbBjluKbVtUMkEv3xAK1egyY2LE5jlxAhMqbwogRn0DpEQgakcC6+bVVljW+bvp7NcrA3KppHAk39NbFuTj1sZydzOV0VJVso6BKaLwBxIFWV+3+fUrLuU7Hh+YAJNkEzwRwrMTJnfd2AWlPmTK8kqx4LAVMQITGX4y6S4uyOAeJII/oLADNrbDxGYyqQ+CUxn84oRNSEwnaqF/1nwThtMktshu1vwzvu8CIuxWRWAuJIIfqXMf6MhM68JTF1mjoIEpu9ZtMqx8Fq1iLW7o0xOygm+7HMTtuAFxlntg18Cs33xUv7hJGdeKwjMnFiBqbQj+LLPvgMz0mZVlPmBhql98FdVkk1tXJzALK8pgamsaxFis6rMOVWwdj2AhNQ++JWgCRGYmc0yfAdmQZk/uZIsgVlOjMAs2Kwqud0dAcRX6+AvCMzge737Dsxb7gQsk+REsvCB6VQtfM9RaEpgKpP6TOihoxCbVQGIr9bBX1DmD1paJjB1kQLTWUDJ946CkaoWwQNTuUMk+GZVTOoDmqHWwa9swRs8MEOMixOYpQUPTFmDPOdMgDJ/0MCMtFkVZX6goWob/FWVZH1vwUtglkNglqdUkEzoHQVlsitlfqAZartWf0Fgztpb73zZ3ftzQgRmwYf0ienWpPPgCKoIzN3TrUmfiw9tzD8QKTCP2hX2fMmcUyECUxkC62zr7PmcCrpZFYDq1Db4Cz6kdzmPeBQiMJWqhdjnPOJRpMDcmg8Hn2Q3swiBaUKfU74DU3ZLUy7CNoQ+p1itD2iOWpb6C8r8wUUKzKAiBmZQvucoFFQtgvMdmMqkvuBC7O4IoDq1DH5lUl9wIcr8BObwfAfmzbn451Sk7ZCDo8wPNEstS/3f+vZmM/XMAefxkCa2Twvb4uQAACAASURBVHn/6b5vqSsjxOJDsY/F2ocnvAemLF28btMm5/GQfJ9TUgmrYjvcKs5jAOHUMvib8kEzdTBuYIYggel7vf8qNOGckopUE84pANVKZj9+AAAwOoIfAIAxQvADADBGCH4AAMYIwQ8AwBgh+AEAGCMEPwAAY0SCP7PDmqwFDgAAmskJfgAA0AzL1xfz7bjhlPpliVYAANBIn0jwX+5tWRW74gEAAP/ufHor/zO/kOD/Iv+o7MgGAADSpuT55YcW2ktzTvC7VwgAACAhMnSvbKt+uTvGP9/7aBV7fgMAAH+W9Cx/EPyZXj+39AEAkDYly28stJc+6Qb/6d6vfHn3Hr1+AAASJWV+Jcc7Wd8JfjvOv9L71VsXP+R4AwCQICnzSyc+54TJLdl7ovfrcqVw150UAAAAau5fz3+Qf4FS5r+cD/7j+Wctnv0NxxYAgITI2L6yJs+Dzv2D4JcBf2PM+73Pal+8RK8fAICEfPTOu/kXu9Lbuc8v2Xss/+xrv3yL4w0AQAJunv9A6+2fXmgvPVisLxP8dpJfpte/vLCozQwEAAA1IhX6xffO5V+Q9PaP9j7gbNKTf4K4euotSv4AANSYVOiVmfzHe3v7Rgt+O+vvjd7H5Add+fkJdu4DAKCGFs+e61Toc+YX2kvOEL4T/Nax/DK+Mmbwe3fCAAAAqJCsu6OU+MWs80hR8NuywGx+UR+Z5S9lfwAAUD0J/Wun3tZex0+69+2XCn7zdcnfGe8n/AEAqF6f0D+50F5y1ubpKgx+cz/85Yb/1/KPS/jPv3mSMX8AACogt+0VhP681mnv9Y2vvvrKeTBvujUpFwBH8o+vf7Rlnjj8oln/7c3O9wAAAL+kwy3z7aQDrpDQn8nP4h8q+E2f8F+zbq2ZeuaA2bL/aed7AACAH7IU79VTb5t7+u31pULfDBL85n74S/ngdecLtvf/+PPPmontjzlfAwAAw+kszHP2N0W9fGMX3jtUJvTNoMFv7of/IbvY/wbni8aYiekpM3XwABcAAACMoETgizcW2kt9x/TzBg5+cz/8t9nw3+d80Vq7acJsmXnKPLLru2bdpgnn6wAAIEvG8GUv/fZvP9QW5Oklt9vPLrSXTjtfWcVQwd9lS//Hinr/XXIRMLF9qlMFkIsAmQy4Zt0653kAAIyTO3+41Rmzl//97MrvtA12NCdl5n7Z0n7eSMFv7of/RrvdnzPxrwy5KKAiAAAYF6v05PuRsfxjdkO9oY0c/F22/C+9/0OrVQAAAEBpXgK/y1vwm6/D/2VjzP9ijHnYeQIAACjrvxpj/k9jzP9etPzuMLwEf09vf6hyPwAA6Mtbr3/UyX0b7dKArzpfVMhiP//D5KT584kN5r/78z/vPOHe57fdJwIA0FD//f+43jz0Z3/Wadz/d+v/Nl/9x7+XndRn7AWAzOb/xPlKSUMH/3Rrcsbe0rfV+aIlQS8z+R/ZuePBjH4AAJAlt/EtX1/srM4nt/MVrM7X6zVtr/0yhr2PX2bxv+J8wZJV/P5i/9NmcucObtsDAGBAcgEgu++tsnjPvF2xb6De/6BL9kppX8YXdjlfZNU+AAC8KrF634oN/9Jj/4Ns0rPbGHNaK+1LSX/H4Rc7JX0AAOCXXABc++Vb/dYA+KHdSn9VZbfl3W17+s79+RL2Ow6/QEkfAIDAZB/+xffOmS/v3tN+UanwXzX4+4X+E4dfMJv3Pul8DwAACEOW951/82TRBMBVw79v8BeN6Utpf8+PX+6suQ8AAOKSuwAuvfGzotsA9/cb83/IeSTrNKEPAEC9yPD6nlde7txFpzhtF9ZTFQb/dGvyWH7bXUIfAIB66BP+G2zHXaUGv12cx1mNb9ePjhD6AADURJ/w32U78A41+O02uxmP/81fcX8+AAA1I+H/xOEXO1X5nFftBP0MJ/jtFUJmXF9u2duy/2mONQAANSTV+KlnDmgvzOnIZ4K/Z9OdB+4vzvOC85MAAEB9SAddVtDN2WeH7/Xgt6GfuV9friBYnAcAgPp74m9f1F5jptevBf8DazdNUOIHACARsguuUvLf1dvrfxD8063JWae3f9D5ZgAAUGNb9j+lvbgHHfveHv9s7zOkt89yvAAApEWG51t79+Rf83N2Ht/94Lcr/GQW6yH0AQBI05YZdZj+kOnp8c/kv9r6PsEPAECK5PY+ZVGfTPAf6v2KPFkmCAAAgDQ9svO7+df9XG/wZ1b2YYU+AADSJovv5cns/ofs+P7W3q8R/AAApK1gb53d0uN3tu6b2O6s/AMAABKjrOS37aF8mV+W6GWlPgAA0qf0+js9/o29j6x/1HkSAABIkNaRd3bnAwAAzbD2YecOvX0P5e/hV54EAAASpN2a7/T4123a5DwJAAA0gxP8AACguQh+AADGCMEPAMAYIfgBABgjBD8AAGOE4AcAYIwQ/AAAjJE143ywr556y9z7fNl5PKTW9580m/c+6e033L29bK798i3n8dB2vXREXQpyWLcufmjav/0wahtkDevHn3/WeXwU82+eNF/+6W7UdmzZ/7S6/eaw7vzhlvnonXejtsEEOKcA6MY2+CUw2xcvOY+H9sTfvuj1N3w2/zuzvLDoPB7S+kdb3j+g//X8B+bOp23n8ZB8hqWxgfnZlavO46H5PqfaFz+Mfk7JsSD0gTjGttQvgRmbBKa2fOIo5EM6tpbHioWxgRk79MUju77rPDaKKo6FbLnp+5xaquDixfdFGIBiYxv8BObwCExdFYEpQ0c+yTl173bc4S8xSfAD0YxlqV/K/EpgnjTGfOI8eXiy+dG+3u+OFJivOY+M5qgxZkP3J4SoWiiBOW+MOe08cXjbjDFHer87UmD6PqcOyVB47wO+A/Pm3Af5h1aMMcedJ47m1d7vpswPxDWWwS/jyYqjC+2lL9yHhzPdmrzc+42RAvPMQnvpmPPE4duwLf8h/Rf7n3aeN4qCwDy+0F464bEdTnDFCMyF9tKs88QRTLcmMz8vRGAqcxROez6ndmvBDyCesSz1FwSmz9Dflu+ZRQpMn71kY3v7Gb4DU6larARox6He/4gVmM6TRmADc2u+Hb7b8OXde0HbkT+n1qxb6/UuFwCrG7vgJzAHEjwwb7ntOO35IqwpgZnp7Utg+j6nlq44E16lahH8nAIQ19gFvxKYhsB0EZjlRQrMSsr8zpNGMN2aPNQ7X8R0Loj9znsBsLqxC36lzH+SwFQ549MEpq4JgSkXkso55cyNGFHmglguwujxA/GNVfDLB3SEMn9TAjPzId3au4fAVDQlMJVjcWOhvXTZeeJonEoYgPjGKvgJzHJsYGaqFr4Ds6Bq4W0mv0VglvDl3btaO3yfU7P5i7AtM34nvAIoZ+x6/DkEpi54YCpzFCQw55wnjqYJgelULXzPgleGv0zoc2rtponOXgkA4hub4C8IzKC9fQJTR2AOJDN0JIE5sf0xr79AORZeqxbTrcmNxpjneh9jpT6gOmMT/EqZ/0ZqtypVFZi+qxYEZjkxAlNWsVTaEXSOggmwfDWA8sYi+CUwlZ34CEydU5JNbVycwCyvYLOqoBfElPmBao3Fkr0EZjk2MDNr2vsOzIKqRdBjYQjMQsq6FvML7SVv+wvYVSwzF2FbZp5ynpc6uRD8o2ya9YdbTktkyE+Om/xLcU+C7qJntK05xiL4laAhMHXBA/PWb52gMSlOJIsQmE7VwvcchYLNqoKfU743q6qKvB9lCLFg/pBK9uyQISdZwtv33h0+yVwiadfy9Y8Hapt8XsjxrXPbmnzcymp88BcEZtCemSEwCxGYpTnrQfjeUTBS1SLTjhCbVcV28/wH5ubcBW1NkFXJeSP/5Ptla+ipgwe8zz0ZlnxW3jx/obPhVNlA7NVp269+bT761a9r2za5oGnacRtG44O/oMwfdCy2KYEZYlycwCwteGDKh1jOmQBl/sxmVSlP6pMOxO/feXeo4NAsLyyaSz/9x06QPPG3L1Z6QSSB+NE77w4V+Jpu22S48/Hnn620bU0+bsNqfPArW/ASmDqnauF7R0ECs5wYgRlpsyrnnEqxzC+9xaun3tYqh5obxpj8ubA7P/G3lwTJxX943Uw9c8Bs8fyeW420bf7nJzuvoYR5Y0x+efO+besOF+w4/GL0lRpjHTe5sElth8lGBz+BOZDMjoIhAlOpWrxPYKqcc8p3YCrHwoQ+p+SDP7XekXyGXPn5Ce1zpKu7K+bpfrcH23Nzxh7b5/Jfl562lMjvfHqrE5IxyLk8/+ZJ7XzuutHTtsK1QnraJhfd+7S2ye+RSZ0SkrHadu3UW6sdN8mCuVGP27VTbz+4uElFo4OfwCwnVmAqb8LkJpIpx8KErlpISdH3OaUMgZ1JbbOq0OScvfTTnxWVvyUUjy20l0qdw/b9Ks89Yd9vx/ITgk3n/Lp/23HoEKmibVIp+2937zaybbGOmy+Nvo9f+ZAOcasSgVmCciwMgemygZk9pzzPUYhUtXDmWqS0Wp+UifuExxtSBi4bHnnyGbTQXpK/z1/a8nmGhMjVU2853+fLKsH42kJ7aZuHtu2vom1SoenTNl/H7XtVtM2nxgZ/QZk/+AIrTQjMEFULArO04IEps7ZzVob9MOzDWcUypXuhL72hhoeUh/96ob101Me5a4NEztuT+a9JiCyePed8z6g6Y/pvnixq2/cW2kvHfPweOzQwU9Q2ZelxL22TYZmCtu33eNwu9ztuN915ZbXT2OBXJvUZAtOlVS18z1EgMAcSPDCVyU6+V7FMuswvs9uVToOEx0y/8eBh2V7kD/Pfvvjeuc7YsU8y2U15L3bb5nVXSfmcsm1zArLzN1YWzRmFXCj1OW6FcxRGaJ+07SdO22Suhue2+dbY4CcwSzuaf6LvwFSqFiuhJ8QRmLqCRUuCnlOyAloqs54laJW7NoIEYy97Afla/nEJal/k2CvncIy2OeHfmcz4zrvOc4dV4XE7rl3YXKt5yb+RwU9gDiR4YCplvdOpTSSLFJiZqoUEpu9zStmsaiW1zapCKiivHw0ZHl22zH6m9zH5HCt4TQP7vR60hyK1bTY/Li63wymfDUMpuIiYjdi293sfk8pDiOEMXxoZ/EpgGgLTRWCWFykwM+1ItGoRfLOqUKTXqNzPfibAcE4/s/YC/4H7K+nd7fMtqytYse6NECXwPg7l2+bjokbappT4z4QYlukjSNtCaWTwK2X+kwSmKvi4OIFZTozAlA9I5ZwKOuFVLsJS6fErH9QrWmUvJPs5lfmdcsyUzzQfbfMyka8se0dV5ny7p+9yOZC2u5z5ivbZFrhtX+T/ntI2pfNWC40LfjmJlCtbAlOX+ZBu7d1DYCqaEpjKsfC6WZXlVMJSIHcBKb39Ez5v/y3LVhhu9D69YLJyKQVDn8d9doYGcDzfMx4lHAuOWyVts+P9meOmvOdqoXHBT2CWYwMzU7XwHZgFVYugs+AJTF2MzaqmW5Oz+YuwLTNxl6AdVsFiX74v7gaR+d1Syr7rhncpBUOflbTNBnLmM0A5L0srOG4xh2b6/u77n4GjDdOE0Mgefw6BqQsemMqV/I0AY4pNCEynauF7FnxBqTi53R1DUXqNXhf7GoJzjg17a5/yfV7vcBqCc94pr7EU5b3pdVVTP21zzq3KNSr4CwLTeQONiMAsgcAcSGboSALT95afyrHwWrWIsVlVSErwxJwY5rDhlZkF/8ch7w1XJr5V3bbL+XL/sOGoXLDV4bhlyv11vKe/UcGvlPlvpHarUlWB6btqQWCWE2t3R6UdwVexTGULXnnPKR2GmLPdi2RewzABolzQiOC3uJWQeQ2yOdGgCoY+6tC2zHErOAaVakzwy5u3u1FCDwJT55RkUxsXJzDLKxgHDXpBnFKZvyBQqywXd2XK8QVBN7AY97aXkAnHL/80+Dj4vc9vO4/VJPjrcO701ZjgJzDLsYGZ2V3Kd2AWVC2CbyxEYOqUyV0hNqvKXITJFqwpq3icuCsTjsrM/FUplYxGq3juQlfm3BmmmhFaY4JfCRoCUxc8MG+599WaFCeSRQhMp2rhe45CwWZVye3uiOEo1QxnVzl4l/mMqOPFVyOCvyAwg/bMDIFZiMAszVkPwveOgpGqFsE3q8JwlPf2Lv6UwW2r+wtsRPAXlPmDjsU2JTBDjIsTmKUFD0xl45IzAcr82e2QE5nU1499r1Rtpvf3rx3i3JC7jhBdJvgnpqdqdwQaEfzKqlYEps6pWvjeUZDALCdGYBas2Ba8EpZamb/gAn6380h8mYsPX+e4XXK8apnXsOabgy+AtvbhTc5j063JGefB+Ojxh1ZVYCY6kSyzBniIwFSqFl4X1CAwy1OOhQl9Tslk19TK/LLqptIzrkOAZHv8Dw/+dy24vbV2wb/+UfXiq6+C86x+bdMvLCuVfPBXFZgRyvxJBmYTJpIpx8KErlpIObDgg2xoyhCY1xXbYmxWFYsSPJUGv60yZt6vBSG+Kvm8yqm6bc55M+znqVJGr7ptzufstwh+/5QP6RC3KhGYJSjHwhCYLvvBlz2nPM9RiFS1cOZapLRaXy/lgmWffe9XxXm/Dhv8yvcdqngOg3PeTGx3ArwUpW3PVdw2b8ctpKSDv6DMH3yBlSYEZogyP4FZmvPB5zswZQ/3nJUA+8o7q1j63qwqloL3tHOcIsps8TrK+1XpqGzQPtdisKHsbRtt5YLNxN5Kud/vrusdLkkHvzKpzxCYLq1q4XtSH4E5kOCBGWHZZ6dcW/AhnAR5Tytl46NV9B7tLoeZv60S3qVJGV25IyDqXvw9juZXPx3lvJG2KUMZtTluvj9nfUk6+KsIzEQnkjlXwL4DU6larISeEEdg6iJtVpU5p2RynO+1FGJTqkcbYm9fawMrE8qdv6372gairKS4dbo1GTX8bdsy541ckIx63ijhuiH2hY1tW+ZckeNW16GvZIO/qsAc9Q2Y15TAVHYUPJ3aRLJIgZmpWoT4cFA2q1pJbbOqKkgAKT3jI3aPjliO58/zLTNPj/x+lc8t5c6FVyPf2nc639ufOnjAedKgCo7bK5Fv7TuRb5uP4xZKssGvBKYhMF0EZnmRAtPb+GaRJuzuWJUdh1/QfvOJGAFpS8WZZcHlPN+y3+mtD0zOsceff1b7trkYZfHp1qRc0OzrfUxK9L6qRN/R23Y60nE7ml/nRS5EfBy3UJINfqXMf5LAVAUfFycwy4kRmHIhqZxTQSe8Sjg1ocdv7Azs1t49+Yc32IAMFiI29H+Rf3zH4Re9necSsso8hg2hw9+27ZX8408cftF57rDk/FPOwQ32oi3Y3Rm2ba/nH5cLyDpPdE0y+OUDugkTyaooycqHGoHpakpgKsfC62ZVllMJaxLpPSoTxoKFv+0xOqEv4/K+/7a7Xjqilfx3BWzbca1tU88c8L4WioStUvKXtl0O1LZjWtvkuNXxFr5eSQZ/VWOYiQZmpmrhOzALqhZBZ8ETmLoYm1XZHo4zltkk8j5/otPTdgJS2v3PvibFSS97ujV5WusxSs+8oDQ/Emnbnh+/rLWtG/7OvKYh27ZtujU5p/X0pfPhY2w/T9q260fqhU33uPlu26v5r8l7OsRx8y3ZHn9O8MD0PWO5KYGpzFGQwJxznjiaJgSmU7XwfU4pw18mxd0d60DaVBCQxk6K+8ReBA3MBv4xu33rc/nvl2qD9MxDkbbtKL6weV1CbdiJcT1t+5f8mL6xob/DY4k/b5XjJm2T3v+obbustU2OW8EckdpJLvgLAjNob5/A1BGYA8mEhASm73Kgciy8Vi1ibFZVJ6uEiHQMfmEvAI6WKSXLuTzdmjxhA//V/Hlt7Ht0zysvBx8f7vye4rZJqJ23IXl0tTFyG4jdti1rPWETIfS7VjluUtk47/u4SdtiHDdf1iTxKnsoZf4bqd2qVFVg+i7zE5jlxNrdUWlH8FUsm7AFbz8SIk+99p/N/M9PmuWFRe2ZW7ul+unW5IrtDX5h/3ej3bDFWXdfI+PeIUrgRaRte//uJ+bKz09oK6Aa+5pftz3lkdr2+N/8ldni3m8fTJOPmw9JBb8EZvvipfzDBKbOKcmmNi5OYJYXabMq55xqYpk/rzMu/srL5ub5D8zie+e0imPXhp4SsFPCLyIlYhkXrmJCmKxYKOG/ePZcZ9VK323rzlWo4jyJcdxkLkiK74Gkgr+KwExxIpkNzMwgoe/ALKhasB2yLnhgKutahNisKvOhqKwG12jSY5WFcG6ev7BaSJYi54H0FOuw4qG8Dlm5cPHsb7TO1cAkFGVFvTq0rcnHbVhJBb8SNCECM/Mh7fvgNiUwb/3WCRqT4kSyCIHpVC18n1MFm1Ult7tjCqQXKR/6sjiLdEQ+s//K6nYkOvfU1+yWL+n9yxi83M4o729pV0GZXHV/GG6qc5dH3XrBTT5uw0gm+AsCM0TPLFPmJzB1BGZpzsxvZU34kUSqWgTfrColEiRyPnbPyeXrH3eWEZfe5N3bt829z++vMyLvO3nu2ocnOnv+p1AWltcrvWT5J5+70q7l6/cvAO58est8+ae7nf/fbZv8r+w5n8L50O+4aW1L6bgNIpngLyjzBx2LbUpghhgXJzBLCx6YN+cu5B86E6DMH3SzqtRJL7AJPcE8Cb+mts00+LitJpnb+ZQteAlMnVOSVXavGgmBWU6Ddnd0zqlxLPMDTZFE8FcVmIlOJMusThUiMJWqxfsEpso5p3wHpnIsTOhzSsY6x7nMD6QuieCvqoeZ6Mzr4IHZhIlkyrEwoc8pubXJd2AqQ2BnUtusCkBcSQS/8iEdIjAzSzBGCszg94sTmLpIgZm9CPM8RyFS1cKZa9Hk1fqAcVD74C8o8xOYOqdqQWC6mhKYck9yjmxWFbT6EmKzKgBx1T74lUl9hsB0aWV+35P6CMyBNGF3R8r8QAPVPvirCMxEJ5I5W076DkylarESekIcgamLtFlV5pySRUxSXq0MwH21Dv6qepibPZeWlcA0KQamsqPg6dQmkkUKzMw5JYHp+yJM2axqJbXNqgBUo9bBX8W4eKTAPElgqpoSmMHPqSbs7gigGrUOfqXMT2DqnKoFgalrQmDKhaRyTgWd8BpisyoA1ajtkr3yAa2U+T+Zbk3OOE8eXhWBKb7w3I7Mh3Rr754YgXnZcxt2VxSYvtvhVC0i7O4ocy02hjynCH2gOWob/AWB+ar9F0SkHqY47zzike/ALKha7AvZjkiBKV53HvHIdxsKNqvaEPqckh3XADRDbUv9yodbcL5nLBcEZlAhAlOZoxBcpMAMzvc5pQx/BRdisyoA1all8BOYwyMwdVUFpu+dv6o4FqzUBzRLLYO/oMwfVIgxzGo+pP2W+QnM4YXY3bGKdrAFL9As33jsf3pkrned+qlnDpipgwc4zAAAJG75+sfm0k//MdOIZPbjBwAAoyP4AQAYIwQ/AABjhOAHAGCMEPwAAIwRgh8AgDFC8AMAMEac4L97+zbHHwCAhpLgn+tt2r3PnR3xAABAgrTl750ePwAAaIY7f7iVb8e8E/x3PnWeBAAAEiQbreV84ZT6pSygPBEAACRG6fF/IsH/Sf5R5YkAACC14Her+JcfWmgvSfCv9D66fH3R+WYAAJAO6cQrk/sud8f4M+X+zyrYDx8AAPgjW/LmLbSX5tTgv/Np29y9zW19AACkqn3xw/wrf9/03M53Ov/Vz+bp9QMAkCLpvEsnPqeT9Z3gt+P8871fvzl3gYMNAECC/vX8B9qL/jr4reO9X713e9nccssEAACgxuSWfCW/z9hOfib4T+dn9y+ePcexBQAgITfPX9Bm85/o/p8Hwb/QXvqCXj8AAOmSsf2bc06Z/8ZCe+nBXL78kr3H873+j955l5X8AABIwP3Mdnr7x3r/IxP8Wq9ffsDVU29zvAEAqLHPrlzt/MuZX2gvneh9yNmkxwb/jd4H5AdR8gcAoJ6kxH/11Fvaazuaf8AJftvrn80/LuUD1vAHAKBeZDj+ys9PaCX+N2SlvvyDTvAbu6SffEPvY/IDL/30Z4Q/AAA1IsPxymI9N/Jj+11q8Jv74X80v6iPhP+1U2+xnC8AADUg5X1lXF8m6R+yFXxHYfBbh/Kz/OWq4uI/vE7PHwCAikh5f/7Nk6Z98ZL2Ao4utJcuO49a3/jqq6+cB3tNtyZ32018NvQ+vmbdWrPj8IvmkZ07nO8BAABhSNVdxvSV8r74YX4W/8DBb/qEv9gy85R5/Plnne8BAAB+SVlfyvvKRD5TJvRN2eA3q4T/+kdbnfCf2P6Y830AAGA00suXu+uU8fyuUqFvBgl+83X4yw/e5XzRmE7ZXy4A1m2acL4GAAAGI2P5sva+LMNb0MtfsWP6pULfDBr85n74b7Th/5zzRUsuADbvfZLxfwAAhiA9fNlaVxbPKwh8Y2/ZO9RvIp9m4ODvmm5NztpV/pzSf9faTRNmcueOzhAAFwEAABSTu+WWr39s2hc/LJq410vW2jlWdMteP0MHv/m69y/hf8T5okLmAnzr25vNn61bZ/7j3//DfPORh90nAQDQcP/+b/9m/uvyinnoz9Z0Av/Op7f69ex7zdvSvrMiX1kjBX/XdGtyxq4QtM/5IgAAGNUN28MvPZZfxEvwd023JrfZC4D/ZIz5pvMEAAAwiLPGmDd799Mf1Wor95Vmy/4y7j9D6AMA4MVBmcBnO9ZejNzjt4F/1P4rnOgHAABGctKW+z8Z5YeMOrnvkL21r2/gy/K+MrN//aObzfpvb37w3wAAjCuZ1Cf36Xcn9y1fXzT3ym2C95pMrB9mRr8ZNvjL3Msv4d69n5+QBwBgdXL//mfzvzM35y6sdhEw1D38ZsgFfAqX7jX23v2pgwc6gQ8AAIYj9/TLBUCfZXrFTxbaS8edR/sYdMlembz3C+cLBD4AAEHIBcDi2XNmeWGx6MefXGgvzTqPFhhkk57C0Jcd+iT016xb53wNAACMbpWd+WRhn5ky4/5lt+VVQ1/GUm0loAAAGwtJREFU8Xf96Ahj+AAARCCTAed/frKo918q/FcN/qLQl+V397zyMr18AAAiky16Zfxf8f5Ce2nGffhrfYPf3q73T/nHW3v3mO88/yyhDwBARWTnvmun3tZ+ed8x/8Lgt6sEXc7P3pfQ33H4Ref5AAAgrj7h/8Oidf37Ldl7Oh/6E9NThD4AADUhd9I9cfgF7cUct7ffO9Tgn25NykY7u3ofkzH9XS+V2n0XAABEIuEv1ficDXahPYcT/LbE/2rvYzJ7/4nDLzKmDwBADUk1XjroObumW5NH8w86wS/lgfwDU88c6KyxDwAA6mnnS7OdjnrOMbvMvh78063Jmfz6+zKuv2X/0xxmAABqbN2mCbNlxsnrDXb33AfyPX6nJPD4889ynAEASICsoitL6Occ7e31Pwh+O7af6e3LZAFK/AAApEPCP0d6/Q/u6+/t8Tu9/amDP+BQAwCQEJnlr/X6u/+nN/gP9T5DxvbXud8IAABqTun1b+3e198JfvsfW3uf0fo+2+sCAJCiyZ07tFfdKfd3e/yH8l8t+CYAAFBzsu7OI26Oz/QGf2YnH3kyi/UAAJAuJfhlQZ+N3eDf1/sVGd8HAADpmtj+mPbaZx7SFvEveDIAAEiETNBXZvfvlh7/tvyj3LsPAED6lLvzOsGf6fEri/wDAIAEKRX8jc4mPUzqAwCgsbZJ8G/k+AIA0DwT253J+ludUr9SFgAAAA3hlPoBAEBzEfwAAIwRgh8AgDFC8AMAMEYIfgAAxgjBDwDAGCH4AQAYI2vG+WDf+cMt8+Xdu87jIa19eJO2dvJIlq9/HLUNxu7n4HOVx7u3l829z287j4ckr9/3vhScU8PzfU4B0I118M+/edLcu73sPB7SE4dfMOv2PuntN3x25WqnHbHN/JfXvP7GxbO/Me2Ll5zHQ2rt3WN2HH7R62+49NOfmS/v3nMeD2nXj454Df5bFz8010697Twe0pp1a83Mf/nfov5OYFyNbalfAjN26IvJnTucx0axdOV3sZvQCUzfPTM5HrFN7vyu9zbEDn0JzEc8n1NVHAvfbQBQbGyDv4rAlA83AtPVlMCUnnJsvtsgwxRVnFNbZp52HgMQxlj3+GPb7LHEbwjMkTQlMH2fU0sVtGHtpgnvcy0AFBvLMf6CwPzrhfbSaefJQ5puTZ4wxhzpfneIwFSqFjcW2kvbnCeO1o4vjDEbuv8dKTDfWGgvHXWePKTp1uQhY8w/9X6376pFQWB+b6G9dNl5dPh2yPn5XPe/JTB9b6qlHAuv59R0a1J2A82Msfke/gLQ31j2+AsC01voW4d6/yNEYCqT4by2wQbmht7HIgXmCeeR0WSOhQRmhHHxG55Df2Nv6JsAgSl3VijtOO48cTSH8t/d8ly1ANDf2AU/gTmQpgTmkd7HfAdmQdUi6LEwAQLzs3nngtj4fm9o5xRlfiCusQv+KgIz0sxrAlMXPDBv/VadoxD8Isx3YLbduRbzC+2lT5wnDmm6NbktX7XYMvOU1zYAWN3YBb8SNCECM/Mh7XsCVkFgBu2ZGQKzUITAdMr8vs8pKfPf+bSdfzj4Rdgju/xWwgCsbqyCP2JgZsr8vgOzoGoRdCy2KYEZYlw8QmDO5h9ofT/JMn+mHesfbXlfcRDA6sYq+AsCM7ke5r+e/yD/EIGpc3qYf7Hf7/3iTQnMm3MX8g+dCVDm39X7GJP6gGqMVfAXBGZyM68JzNIytwSGCEylavF+aoEp+wsoq1gGHzqizA9UY2yCv6rATHTmNYFZggRmE8bFlWNhQp9TMtmVMj9QjbEJ/qpKsonOvCYwS1COhQl9Tk1MT3kPTGUITMr8XzhPHNJ0a3K3MWZr73ezNj9QnbEJfuVDOkRg7ut9zHdgFlQtgi+w0oTADFG1iBSY2Yswz5P6IpX5ncmJrNYHVGcsgr8gMJPrYSpzFAyB6dKqFr7nKDQlMG/OOefUykJ7Keh7I8RmVQDKG4u1+gsCM+gtVwSmLlJgOuv8+w5MpWqxEnpCXKTdHX2vYtnoMr/cIrx8fdEsX/+4c25LJyN/fsvwzJpvrjPrH91sJrZPed9fIRRpm3zm/FGG5kq0TY5rKqswDnrcUmpbGWMR/FUEZqIzrwnMkpQdBU+nNi5esFlV0HNKVrH0vfhQFeRvJ+eAcuHkWF5Y7DzUee57X6/kOXXwB7Wc4Cjtav/2wwevu5/eti2+d65z+7J8ZkiHoa5tk9c66HGTtnXP3bq2bRCND/6qSrKbPY/FKoFpCExXgwIzc07Jh47vizBls6qV1Darik2O/e/feVf7TClNzh3ZL0T+Sa/yib99sRZBIu/NxbPnRmqbfK+sCSH/Wnv31Obixkfb5LjVsW3DaHzwVzGRLERgKlWLkwSmyrkISzQwg59TSq8nuc2qYpFS8LVfvlWqFzwI+Xn/16t/b6aeOWCmDh6opG3SObp26i1tHtRI5MJGzjFp2xbPQ4ZlhTpu3Qu3Ko/bKBof/EpgJnerkrx5lCtVAlOX6WHKlTmB6ZIekHIRFvQOkRCbVcUgx/vqqbe0v1evG8aYOWPMJ/Z/u7bZf/I5MZM/rl1SSv7syu/Mzpdmo/Yi5Tz46J13V2vbvDHmcp+2zeTvaOqSn/vRr37d+RvueulI1EmdJdu22nGbsceu73Hb88rLSU1YbXTwFwRm8HXUCUxdpMDMXIT5DsyCqgW7O+qSL/NLeFw79bbzuLVij/2Jsn87e47O5lf4FNLjvvgPr5s9P345ykQyCUVlqeauFXsheKLsbc+2bUe1iwDpcV9642fmicMvRmlbyeN23Efb5LhdePXvox03Hxp9O19VY5gEpqspganMUZDAnHOeOBrnnPIpxmZV063J2XwvKbVJfauEx2vSI1xoLx0d5IJJPn8W2ktyfP9SVqvMf13eI5d++rNO+T0kqWAUhP5KT9uODbLWiW2b9JD3a22TgIzRtpvnPyh73IZp2/e0tsU6br40OvgjfLjN5APT94dbQWAGvXghMHWRAtMp8/s+p5ThLxNjs6pUbmMz/UNfyt7fs6E49JChhI4Nkh/asH2gGyJ33WqlFxKMMj6tkLbt9tC2Odu2n+S/Jm271hk2uet8nw+d8v6vfq39JF/H7XK/tslxC9U2nxob/FXNvPYdNkrV4kZqM6+rCkzfVYtIgZk5p0IEpnIsvJb5Y2xWFZL02qQMrjgjY74+/1Z2saQZLfyv/Nz3qWU6960XBKNMFt7tczXThfbScdv7z7RNev5X9YuqkdyfpKj+3JMBjttx2/t3jtv8z086z6+bxga/EpjJ3aokgalcmROYOqeHmdq4eKzdHZV2BF/2OaUteK/pE/kkGA/5nBjcZc8hJ/wlIOUWNF/k86QgcKVtzlwlT22b09om5+BNfWG1oc2/qQZup20xj5vMZ/B53EJoZPAX9DC9Bg2BWZ5yLEIE5pHex3wHZoxzqkG7OzrnVCqTnuQDW7mtbV5b3MqnohCRWeO+Sv4F97GfCRX6XbZtzrktbfNVFi9o23ykts3kH5elsEMN1fjQyOBf0sv8zLzOITDLu/VbZ46CiXERlujujpmqRSqT+uRc1fYukOMSoseYZ9/bx/KPL579jfPcQd21C+vk3NDuSgrUtjk7se4B+Yz+vT6kMpA+x80J5BDsccuM+UvbfBy3UBoZ/ErQhAjMzIe07w+3gsAM2jMzBGahCIHplPl9n1NVbVble0fBUG6ev6B1GAaa2T4qO3acmTUuw32j9h4LQuhojAuaLplYZ6snD0jbRu31Fxy32G0LctxCaVzwRwzMTJnfd2AWlPmDjsU2JTBDjItHCEyn5+U7MCOV+YNvVhVKwZ0nvt9zZTjDCgUbjZVS8Jn4foA5T2U4bSvoHJSm9PZvBNhhsgynWjPKcQupccFfEJjJ9TCVE4bA1Dk9TN87CjYlMJVS75kAZf6gm1WFUrCnh/NBHoOtTp7p/VXKRUlpBUOfVbVtzu31D9+2gru3qmxbptdfkEeVa1zwt92rx/kUZ14TmKVlehAhAlP5YHo/tcAsCLbgQ0eP7EpjbX7lGK9U1GvsyvxuCbdhF4eRW/hyQqyhMYhMFUU+64YtiSttq9Vxk/dcHRf1aVTwy8mjbMbAzGsdgVmCvGmruAjzHZjKsTChzynZeS6VMr/y4VxFGfwBW4Z3boEbhuw7n1Np27TfrwR4Kcr3OT87Muf3K6+xco0K/qpKsonOvCYwS1COhQl9ToUITKXkGHyzqlQm9Zmevdd7VNkj7spUKu986lycrErG95VKT6Vts+ddptx/73PnNZaifMbUoW2Zcv8wxy20RgW/8iEdIjAzmzT4DsyCMn/wBVaaEJghqhaRAjN7EeY5MCOV+Z3Jiams1ldQZo42k7+PTIh9+afBZ78rlQxTx4uaYXrFBW3zvdHUMDKvYdiLmpAaE/wFgZlcD1OZ1GcITJdWtfA9R6EpganMeg4xDuqsYpnKNqX3Pr/tPFbxGHhX5v3iq+cY8za3Pka+sNJuAwyww+QwMn9f7XVWrTHBr0zqM6FvuSIwdZEC07ktyHdgKlWLldAT4hLd3dEp86e4BW8NZUJMmb2+KqVXvDLwD8GgMheNSoe0co0JfuV2l+CBmejMawKzJOWcOh16XDzE6o9KYATfrCqlTXnGTB16+6hYI4K/qpLsZs9jsUpgGgLTRWCWF2mzqkw7Uirz19zGUV+eMvF4q/Mk+La79+etreGdLY0I/iomkoX4cFPK/CcJTJVzEUZg6pqwHXJo2t/cvleqlnkNcrdHg4x8UaOxldmqZdpWx1taGxH8SmAGv1UpRGA2YSJZFdsht/buUT+8R9GEwJTKi3IRFvQOkRCbVYWm9IpFHQJk5IuPtQ9vch6bbk1G2bxmFZm2FRyDvia2P6Z9uQ4XbJm/75pv1q/6lXzwy20gSmAGX0edwNRFCszMRZjvwCyoWrC7o84ZOkqRUo6tXTgWBF1f0tuUc6vfz61I5rZo5e9fivJ99buoebR+W1InH/zKeHLwwEy4JEtglqCcUyGWOHXOKZ8KNmYJXrVIZQvevIntThnduXU3Jq3KOOxCYcoFg9ORidw252+rvMZSlL+J87Nj0t4TyrlVueSDP8KH20z+Dej7w60gMINevBCYuqYEpjL8ZUJXwqT3NewHeNWUi+CtFZfEnbtvhg0QZW7ArorHwp3zRgnwUpT3f9XHzfmcreN7Iungr2rmtXKyjUQp89+IUbXwqarAVD6wR9KUwFSOhdcyf4zNqmKSUFVK4pXs8mb/ts77ddgqY8EiY1W1bZvP86bgeyupaNi2Hel9rK5DX0kHvxKYUcr8Pklgti9eyv9EAlPnbIec2rh4rN0dlXYEX/Y5lS14NRKqyrm0r6Le47H8+3XLzFPOk8pap79PjlTU63fOw1EWEJPjJnOVco5UeNwy6jr0lWzwF/QwvQYNgVmecixCBGbmatp3YMY4pxq0u6NzTvnerCq2qYM/0H7jCXvuRWHH9l/J/21HrQgVXDhE3b7Wfp5mLnp9bEhVcNycC4yQ7IVG5vNJ2lbXoa9kg39JL/Mz8zqHwCzvVpxln4MHprKuhe/NqpyqRaqT+npJACm9x62xQsT+XZ0LtB2HX3CeOygJIGWsXyoaTi81BFtdcN5Ljz//7Mi/reC4yTyGmMfNadvUwQPOc+si2eBXgiZEYGY+pH1/uBUEpvPGHxGBWVITAjPSZlXOGGpKW/D2853nn9XG+qV07LTZJ3tuzGnrhfjqNT7xty86jxljXo3UttPa8IWv97D0+pXj9koTjlsISQZ/xMDMnKi+A7OgzB90LLYpgRliXLwJgRmpzB98s6qqyJjxjsNqQP5iujXpzLT3oSc8MnuBSJD56O13yTF6/G/+ynncts05N0O2TT6HfPaIO23TqwfR2+b7uIWQZPAXBGZyPUxlC14CU+dULXzvKNiUwLw5dyH/0BnP51TwzaqqJr01pXQsXp9uTXod87dj+k54iF0/OuJ9vZAt+58uatsvfJfGbdsua8EYom1SPevTNt/zvwqP254fv1z7vSqSDH5lC975FGdeE5ilZXpaIQJTqVq8n1pgRtqsyjmnCm4XS5r0+gtCRObLXPYxa9yOr6vh8cThF4KVimU4Q95DCimNj9w2+fy0bftnbVMg+duGmggqP1uZy2DscI3P4/bPRccthUmuyQW/BObywmL+YWZe6wjMEiQwq7gI8x2YyrEwoasWPmZl11Wf8JcwOz/dmpzTVqHrx4bi7HRrUt4jr+aHE40Nj5CTJaU3uueVl4vCf5dt24lBQ7In8Lttc0jbQt/bvuulI0Xhv6vnuA3TtqM9x80R+rj5tCaJV9mjqpJsguPiBGZJyrEwKQamMgQWYrOq7DnVkEl9RST8/2zdOm0Ixdj15mVm/A3bc5d/n/SuVmmrh7vtv5l8JbHX/bHhF6Ms+tIN/9+/8662joixlY0jtm2ne9r2oLI6aNukBB6jN9xt29VTbxW1bZ+9APDWtljHzZfkgl/5kA4RmJkNJHwHZkGZP/gCK00IzBBViyYEZqQyvzNJKuXV+sqSSWNSdpcgUW4hNrYCcKR72+x0a9J5wmrkvN750mzU6kl3IqNsIrP43rl+bXulu7bAMG2Ti1zphcce9+6U/bc/Zj56592gbZO7JVKreiUV/AWBmVwPU5nUZwhMl1a18D1HoSmBeXPOOadkFcug740Qm1XVlbT1qdf+c78e8lCktzj1zIHOpLuqyO+Wz7jFs7/x2rbuzP0qy9/yu+W9FuK4yQVhqutXJBX8yqQ+E/qWKwJTFykwndunfAemUrVYCT0hLtHdHZ3d4lLdgndY3R6y3DMuIVmwV0gpEopyH/vm7z9Zi4sn+YzrbdsoISmfmfJ5U5dQ9H3c5GJmMvGL3qSCX9n9LXhgJjrzmsAsSTmnTgco8wcNzIIPsuCbVY1DmV/TDUlj//ayZ8gf9fkuGd0lXOX413Xmd7dtMvNfOijL1z82y9cXtc+sB+RckOGCVNom68BIm5p03AaVTPBXVZLd7HksVglMQ2C6CMzyIm1WlWnHOJX5+5G/Q+95KZ9TEiy9JCxS+1vJ65Uee2+vvUlta+pxKyuZ4K9iIlmIDzelzH+SwFQ5F2EEpq4J2yE3RVN6hBra1hzJ3MevBGaImdfBA7MJE8mq2A5Z7qcmMF1SeVEuwoLeIRJisyoA8SQR/DLOpARm8HXUCUxdpMDMXIT5DsyCqgW7O+qcoSMA6Uoi+JXx5OCBmXBJlsAsQTmnbvQuvOKJc075FGOzKq1q0YQteIFxlkTwR/hwm8kHpu8Pt4LADHrxQmDqmhKYyvCXCV0Jk9uZ6rzdKIDV1T74q5p57TtslDL/jRhVC5+qCkzfVYumBKZyLLyW+WNsVgUgvtoHvxKYUcr8PklgKgtiEJg6Zzvk1MbFY+3uqLQj+LLPTduCFxhHtQ7+gh6m732VCcySlGMRIjCP9D7mOzBjnFMN2t3ROafG7bYnoIlqHfxLepmfmdc5BGZ5t+Is+xw8MJV1LXxvVuVULZjUBzRDrYNfCZoQgZn5kPb94VYQmEF7ZobALNSEwIy0WZVze2vTt+AFxkVtgz9iYGbK/L4Ds6DMH3QstimBGWJcvAmBGanMH3yzKgDVqO2SvQWBOTPdmvR569i23v8IEZgFW/CeGGbv5z729X4pUmBu9HwsNuYf8L2jYEFgztp5Hr7s7v05IQLz5tyF/EMrAc6poJtVAahObYO/YAveXc4jHkUKTJMPat8iBebW/NoHPoUITKVqYUKfU5F2d9wQ+pyS/doBNEMtS/0SmMsLi87joUWaeR1UxMAMKkRgFlyEBeU7MKs4FrItKWV+oDlqGfxVBWaEcfHgCExdUwKzYAgsKCb1Ac1Sy1L/mm+uM1PPHHAeD2li+5T3n/7Izu92/sXkOzBlkmXsYyG3VPoOzG99e3Py55QciypuqWO1PqBZahn8TblfeOpg3KAJQZaZbcLa7E04p2TTqCacUwCqlcx+/AAAYHQEPwAAY4TgBwBgjBD8AACMEYIfAIAxQvADADBGCH4AAMaIBH9mh7U7n97i+AMA0FBO8H/5p7scawAAGkCWXc9ZodQPAEBDfXn3Xr5hl50efxW74gEAAP+04Xsn+I3dFhcAAKTt3ue3869/7qGF9tJc/tHl6x9zqAEASJjs6Klsq/5Jd4x/vvdRgh8AgLQtX1eH7ue6wZ/p9Rc8GQAAJGLpyu/yL/TGQnvpEzX4791eptcPAEDCPrtyNf/iO1nfCf6F9tJpubev96u3Ln7I8QYAIEES+sqtfJL1mSV7T/d+tX3xUmdiAAAASMvN8x/kX++K7eRngv9E/lk3z1/gUAMAkBAZqlfW5HmQ8Q+C397Wl5ndf3PuA3r9AAAkZPHsOe3FHu/+n/ySvcd7/0PGB37/zrvOdwMAgPop6O2flNn8avAvtJdO5Hv9MtbPDH8AAOpNKvRXT72tvcZjvf+hbdJzNP+A/CBK/gAA1JdU6O+5S+6/0dvbN1rw27H+M72PyQ8quIoAAAAVk1vwpUKfs5Lv7avBb83m7+uXewILJgwAAICKyJ771/TO+exCe+mLUsFvnzibf3zxvXMs7AMAQE1I6F/66c+0F3Oye99+nhr85uvV/F7LPy5XFYQ/AADV6oa+skLf/EJ7yem8d33jq6++ch7sNd2alJn+R/KPb5l5yjz+/LPO8wEAQFhyt938mye10Jdh+m1aib908Jv74X/ZGLMr//gjO3eYHYdfMGvWrXO+BwAA+CfL8X70q19rP1dCf2ahvXTZ+UqPssG/0a7lvy//tbWbJjrhP7H9Mef7AACAH3dvL5trv3xLW6DHlA19Uzb4u4rK/sb2/qX0v27ThPM1AAAwPLmr7v4y+k5p39iF92bLhL4ZNPjN/fCXewJfdb5gtfbuMVMHf8AFAAAAI5CF85bsrfTKwjxd7xtjDvUb088bOPjN/fCfsaX/Dc4XLakAbN77ZOd/AQBAOTJbv33xw84ddAU9/K7XFtpLzgI9qxkq+M3X4/7Hi0r/XWvWre2M/09MT5n1397MXAAAAHpI0N/59Nb9DXauL/br3XcNVNrPGzr4u2zv/5g28a+IXAysf3RzwVcBAGg+maxXIuR7yQS+o3ZDvaGNHPxdw1wAAACAVd2wFfYTg4zlF/EW/F3Trcnddrnf2X5zAAAAQF9nbNirS+8Oy3vw97IXAYfk3kIqAQAA9CVj93Pdfz5695qgwZ833ZrcJksJGmPkgmCj8wQAAMaLhHx3S/zwjDH/PySEefUlzVkXAAAAAElFTkSuQmCC;fontFamily=FZLTHJW--GB1-0;" vertex="1" parent="1">
          <mxGeometry x="398.15" y="93" width="61.7" height="64" as="geometry" />
        </mxCell>
        <mxCell id="w3XPrhG8B_gGQLfjwU7v-5" value="&lt;font color=&quot;#f19c99&quot;&gt;5s&lt;/font&gt;&lt;font color=&quot;#4a909b&quot;&gt; 超时&lt;/font&gt;" style="text;html=1;strokeColor=none;fillColor=none;align=center;verticalAlign=middle;whiteSpace=wrap;rounded=0;fontSize=18;fontFamily=FZLTHJW--GB1-0;" vertex="1" parent="1">
          <mxGeometry x="66.50000000000006" y="59" width="179" height="20" as="geometry" />
        </mxCell>
        <mxCell id="w3XPrhG8B_gGQLfjwU7v-6" value="&lt;font color=&quot;#4a909b&quot;&gt;日志显示：&lt;/font&gt;&lt;font color=&quot;#f19c99&quot;&gt;100ms&lt;/font&gt;" style="text;html=1;strokeColor=none;fillColor=none;align=center;verticalAlign=middle;whiteSpace=wrap;rounded=0;fontSize=18;fontFamily=FZLTHJW--GB1-0;" vertex="1" parent="1">
          <mxGeometry x="316" y="59" width="226" height="20" as="geometry" />
        </mxCell>
      </root>
    </mxGraphModel>
  </diagram>
</mxfile>
